<?xml version="1.0" encoding="UTF-8"?>
<svg width="32px" height="32px" viewBox="0 0 32 32" version="1.1" xmlns="http://www.w3.org/2000/svg" xmlns:xlink="http://www.w3.org/1999/xlink">
    <!-- Generator: Sketch 55 (78076) - https://sketchapp.com -->
    <title>ic_guanli_pressed</title>
    <desc>Created with Sketch.</desc>
    <g id="ic_guanli_pressed" stroke="none" stroke-width="1" fill="none" fill-rule="evenodd">
        <g id="导入数据-0" transform="translate(7.000000, 8.000000)" fill="#2B65FF" fill-rule="nonzero">
            <path d="M1.00676984,1.01317619 L1.00676984,15.0017857 L17.125,15.0017857 L17.0092621,4.00379944 L12.0003662,4.00379944 C11.5781698,4.00379944 11.201004,3.91885376 10.9676514,3.64685059 C10.9393299,3.59616941 10.8652143,3.54187405 10.8500714,3.50674564 L9.06588492,1.01317619 L1.00676984,1.01317619 Z M11.7554414,3.00928711 L16.875,3.00928711 C17.4963164,3.00928711 18,3.5129707 18,4.13428711 L18,14.8278516 C18,15.449168 17.4963164,15.9528516 16.875,15.9528516 L1.125,15.9528516 C0.503683594,15.9528516 0,15.449168 0,14.8278516 L0,1.125 C0,0.503683594 0.503683594,-1.27009514e-13 1.125,-1.27009514e-13 L9.07885547,-1.27009514e-13 C9.50460649,4.30076132e-06 9.89387994,0.24035006 10.084623,0.620982422 L11.7554414,3.00928711 Z M8.44419727,12.0524414 L5.63602148,8.97966211 C5.41636523,8.76000586 5.06019727,8.76000586 4.84054102,8.97966211 C4.62086719,9.19933594 4.62086719,9.55548633 4.84054102,9.77516016 L8.56388672,13.7421035 C8.78356055,13.9617773 9.13971094,13.9617773 9.35938477,13.7421035 C9.3725775,13.7289168 9.38511411,13.7150895 9.39694922,13.7006719 L13.152832,9.77516016 C13.3725059,9.55548633 13.3725059,9.19933594 13.152832,8.97966211 C12.9331758,8.76000586 12.5770078,8.76000586 12.3573516,8.97966211 L9.56928516,11.9595059 L9.58053516,4.640625 C9.58053516,4.3299668 9.32871094,4.078125 9.01803516,4.078125 C8.70737695,4.078125 8.45553516,4.3299668 8.45553516,4.640625 L8.44419727,12.0524414 L8.44419727,12.0524414 Z" id="形状"></path>
        </g>
    </g>
</svg>