<?xml version="1.0" encoding="UTF-8"?>
<svg width="32px" height="32px" viewBox="0 0 32 32" version="1.1" xmlns="http://www.w3.org/2000/svg" xmlns:xlink="http://www.w3.org/1999/xlink">
    <!-- Generator: Sketch 55 (78076) - https://sketchapp.com -->
    <title>ic_renwuguanli_normal</title>
    <desc>Created with Sketch.</desc>
    <g id="ic_renwuguanli_normal" stroke="none" stroke-width="1" fill="none" fill-rule="evenodd">
        <g>
            <rect id="矩形" fill-opacity="0.08" fill="#FFFFFF" x="0" y="0" width="32" height="32"></rect>
            <g id="编组-2" transform="translate(9.000000, 8.000000)" fill="#2B65FF" fill-rule="nonzero">
                <path d="M7.00077417,11.5776973 C6.91495686,11.5776973 6.82577417,11.5575049 6.74500494,11.5120722 L0.283466474,8.01207224 C0.0226491664,7.87072609 -0.0749469874,7.54428378 0.0663991664,7.28178378 C0.20774532,7.02096647 0.534187627,6.92337032 0.796687627,7.06471647 L7.25822609,10.5647165 C7.51904339,10.7060626 7.61663955,11.0325049 7.47529339,11.2950049 C7.37601455,11.475053 7.1909184,11.5776973 7.00077417,11.5776973 Z" id="路径"></path>
                <path d="M7.00077417,11.5776973 C6.80894725,11.5776973 6.62385109,11.475053 6.52625494,11.2950049 C6.38490878,11.0341876 6.48250494,10.7060626 6.74332224,10.5647165 L13.2216877,7.06471647 C13.4825049,6.92337032 13.8106299,7.02096647 13.9519761,7.28178378 C14.0933223,7.54260109 13.9957261,7.87072609 13.7349088,8.01207224 L7.25654339,11.5120722 C7.17577417,11.5575049 7.08827417,11.5776973 7.00077417,11.5776973 Z M7.00077417,15.0776973 C6.91495686,15.0776973 6.82577417,15.0575049 6.74500494,15.0120722 L0.283466474,11.5120722 C0.0226491664,11.3707261 -0.0749469874,11.0442838 0.0663991664,10.7817838 C0.20774532,10.5209665 0.534187627,10.4233703 0.796687627,10.5647165 L7.25822609,14.0647165 C7.51904339,14.2060626 7.61663955,14.5325049 7.47529339,14.7950049 C7.37601455,14.975053 7.1909184,15.0776973 7.00077417,15.0776973 Z" id="形状"></path>
                <path d="M7.00077417,15.0776973 C6.80894725,15.0776973 6.62385109,14.975053 6.52625494,14.7950049 C6.38490878,14.5341877 6.48250494,14.2060626 6.74332224,14.0647165 L13.2216877,10.5647165 C13.4825049,10.4233703 13.8106299,10.5209665 13.9519761,10.7817838 C14.0933223,11.0426011 13.9957261,11.3707261 13.7349088,11.5120722 L7.25654339,15.0120722 C7.17577417,15.0575049 7.08827417,15.0776973 7.00077417,15.0776973 Z" id="路径"></path>
                <path d="M0.539235705,4.44308186 C0.344043398,4.44308186 0.157264551,4.33707224 0.0613510895,4.15365878 C-0.0766296798,3.88947609 0.0260145511,3.56471647 0.290197243,3.4267357 L6.7517357,0.0613510895 C7.0159184,-0.0766296798 7.34067801,0.0260145511 7.47865878,0.290197243 C7.61663955,0.554379936 7.51399533,0.879139551 7.24981263,1.01712032 L0.788274167,4.38250494 C0.709187627,4.42288955 0.62337032,4.44308186 0.539235705,4.44308186 L0.539235705,4.44308186 Z" id="路径"></path>
                <path d="M13.4791395,4.44308186 C13.3950049,4.44308186 13.3108703,4.42288955 13.2317838,4.38250494 L6.7534184,1.01712032 C6.4892357,0.880822243 6.38659147,0.554379936 6.52457224,0.291879936 C6.66087032,0.0276972433 6.98731263,-0.0749469874 7.24981263,0.0630337818 L13.7281781,3.4284184 C13.9923607,3.56471647 14.0950049,3.89115878 13.9570241,4.15365878 C13.8611107,4.33707224 13.6726491,4.44308186 13.4791395,4.44308186 Z M7.00077417,7.94308186 C6.91495686,7.94308186 6.82577417,7.92288955 6.74500494,7.87745686 L0.283466474,4.37745686 C0.0226491664,4.23611071 -0.0749469874,3.9096684 0.0663991664,3.6471684 C0.20774532,3.3846684 0.534187627,3.28875494 0.796687627,3.43010109 L7.25822609,6.93010109 C7.51904339,7.07144725 7.61663955,7.39788955 7.47529339,7.66038955 C7.37601455,7.84043762 7.1909184,7.94308186 7.00077417,7.94308186 Z" id="形状"></path>
                <path d="M7.00077417,7.94308186 C6.80894725,7.94308186 6.62385109,7.84043762 6.52625494,7.66038955 C6.38490878,7.39957224 6.48250494,7.07144725 6.74332224,6.93010109 L13.2216877,3.43010109 C13.4825049,3.28875494 13.8106299,3.38635109 13.9519761,3.6471684 C14.0933223,3.9079857 13.9957261,4.23611071 13.7349088,4.37745686 L7.25654339,7.87745686 C7.17577417,7.92288955 7.08827417,7.94308186 7.00077417,7.94308186 Z" id="路径"></path>
            </g>
        </g>
    </g>
</svg>