<?xml version="1.0" encoding="UTF-8"?>
<svg width="10px" height="10px" viewBox="0 0 10 10" version="1.1" xmlns="http://www.w3.org/2000/svg" xmlns:xlink="http://www.w3.org/1999/xlink">
    <!-- Generator: Sketch 55 (78076) - https://sketchapp.com -->
    <title>Combined Shape</title>
    <desc>Created with Sketch.</desc>
    <g id="V1.2" stroke="none" stroke-width="1" fill="none" fill-rule="evenodd">
        <g id="图数据库-08" transform="translate(-1422.000000, -397.000000)" fill="#FFFFFF" fill-rule="nonzero">
            <g id="批量操作" transform="translate(272.000000, 382.000000)">
                <path d="M1155,19.2928932 L1159.14645,15.1464466 C1159.34171,14.9511845 1159.65829,14.9511845 1159.85355,15.1464466 C1160.04882,15.3417088 1160.04882,15.6582912 1159.85355,15.8535534 L1155.70711,20 L1159.85355,24.1464466 C1160.04882,24.3417088 1160.04882,24.6582912 1159.85355,24.8535534 C1159.65829,25.0488155 1159.34171,25.0488155 1159.14645,24.8535534 L1155,20.7071068 L1150.85355,24.8535534 C1150.65829,25.0488155 1150.34171,25.0488155 1150.14645,24.8535534 C1149.95118,24.6582912 1149.95118,24.3417088 1150.14645,24.1464466 L1154.29289,20 L1150.14645,15.8535534 C1149.95118,15.6582912 1149.95118,15.3417088 1150.14645,15.1464466 C1150.34171,14.9511845 1150.65829,14.9511845 1150.85355,15.1464466 L1155,19.2928932 Z" id="Combined-Shape"></path>
            </g>
        </g>
    </g>
</svg>