<?xml version="1.0" encoding="UTF-8"?>
<!--
  - Licensed to the Apache Software Foundation (ASF) under one or more
  - contributor license agreements. See the NOTICE file distributed with this
  - work for additional information regarding copyright ownership. The ASF
  - licenses this file to You under the Apache License, Version 2.0 (the
  - "License"); you may not use this file except in compliance with the License.
  - You may obtain a copy of the License at
  -
  -     http://www.apache.org/licenses/LICENSE-2.0
  -
  - Unless required by applicable law or agreed to in writing, software
  - distributed under the License is distributed on an "AS IS" BASIS, WITHOUT
  - WARRANTIES OR CONDITIONS OF ANY KIND, either express or implied. See the
  - License for the specific language governing permissions and limitations
  - under the License.
  -->

<svg width="144px" height="144px" viewBox="0 0 144 144" version="1.1" xmlns="http://www.w3.org/2000/svg" xmlns:xlink="http://www.w3.org/1999/xlink">
    <!-- Generator: Sketch 55 (78076) - https://sketchapp.com -->
    <title>ic_done_144</title>
    <desc>Created with Sketch.</desc>
    <defs>
        <linearGradient x1="2.77341984%" y1="47.7040816%" x2="68.2996123%" y2="52.2959184%" id="linearGradient-1">
            <stop stop-color="#3388FF" stop-opacity="0.5" offset="0%"></stop>
            <stop stop-color="#3388FF" stop-opacity="0" offset="100%"></stop>
        </linearGradient>
        <linearGradient x1="2.5083868%" y1="47.7040816%" x2="71.7503394%" y2="52.2959184%" id="linearGradient-2">
            <stop stop-color="#3388FF" stop-opacity="0.5" offset="0%"></stop>
            <stop stop-color="#3388FF" stop-opacity="0" offset="100%"></stop>
        </linearGradient>
        <linearGradient x1="-1.11022302e-14%" y1="50%" x2="100%" y2="50%" id="linearGradient-3">
            <stop stop-color="#3388FF" stop-opacity="0.5" offset="0%"></stop>
            <stop stop-color="#3388FF" stop-opacity="0" offset="100%"></stop>
        </linearGradient>
    </defs>
    <g id="ic_done_144" stroke="none" stroke-width="1" fill="none" fill-rule="evenodd">
        <g>
            <g id="Group">
                <polygon id="Path" points="1.10705433e-15 1.66058149e-15 144 7.46676642e-16 144 144 4.42821732e-15 144"></polygon>
            </g>
            <g id="product" transform="translate(22.000000, 20.000000)">
                <g id="Group-44" transform="translate(78.000000, 39.000000)" fill="#3388FF">
                    <path d="M22,2 L22,56 C22,57.1045695 21.1045695,58 20,58 L1,58 L1,56 L19.5,56 C19.7761424,56 20,55.7761424 20,55.5 L20,2.5 C20,2.22385763 19.7761424,2 19.5,2 L1,2 L1,0 L20,0 C21.1045695,0 22,0.8954305 22,2 Z" id="Combined-Shape"></path>
                </g>
                <path d="M79.0344828,51 L91.9655172,51 C92.5368463,51 93,51.4477153 93,52 C93,52.5522847 92.5368463,53 91.9655172,53 L79.0344828,53 C78.4631537,53 78,52.5522847 78,52 C78,51.4477153 78.4631537,51 79.0344828,51 Z" id="Rectangle-57-Copy-13" fill="#3388FF" opacity="0.5"></path>
                <path d="M79.0344828,59 L91.9655172,59 C92.5368463,59 93,59.4477153 93,60 C93,60.5522847 92.5368463,61 91.9655172,61 L79.0344828,61 C78.4631537,61 78,60.5522847 78,60 C78,59.4477153 78.4631537,59 79.0344828,59 Z" id="Rectangle-57-Copy-13" fill="#3388FF" opacity="0.5"></path>
                <path d="M79.0344828,67 L91.9655172,67 C92.5368463,67 93,67.4477153 93,68 C93,68.5522847 92.5368463,69 91.9655172,69 L79.0344828,69 C78.4631537,69 78,68.5522847 78,68 C78,67.4477153 78.4631537,67 79.0344828,67 Z" id="Rectangle-57-Copy-13" fill="#3388FF" opacity="0.5"></path>
                <path d="M79.0344828,75 L91.9655172,75 C92.5368463,75 93,75.4477153 93,76 C93,76.5522847 92.5368463,77 91.9655172,77 L79.0344828,77 C78.4631537,77 78,76.5522847 78,76 C78,75.4477153 78.4631537,75 79.0344828,75 Z" id="Rectangle-57-Copy-13" fill="#3388FF" opacity="0.5"></path>
                <path d="M79.0344828,83 L91.9655172,83 C92.5368463,83 93,83.4477153 93,84 C93,84.5522847 92.5368463,85 91.9655172,85 L79.0344828,85 C78.4631537,85 78,84.5522847 78,84 C78,83.4477153 78.4631537,83 79.0344828,83 Z" id="Rectangle-57-Copy-13" fill="#3388FF" opacity="0.5"></path>
                <g id="Group-43">
                    <path d="M68,6 C67.4477153,6 67,5.55228475 67,5 C67,4.44771525 67.4477153,4 68,4 L72,4 C72.5522847,4 73,4.44771525 73,5 C73,5.55228475 72.5522847,6 72,6 L68,6 Z" id="Rectangle-3-Copy-2" fill="#3388FF" opacity="0.5"></path>
                    <path d="M61,6 L61,9 C61,9.55228475 60.5522847,10 60,10 C59.4477153,10 59,9.55228475 59,9 L59,6 L53,6 C52.4477153,6 52,5.55228475 52,5 C52,4.44771525 52.4477153,4 53,4 L59,4 L59,1 C59,0.44771525 59.4477153,3.38176876e-17 60,0 C60.5522847,-3.38176876e-17 61,0.44771525 61,1 L61,4 L63,4 C63.5522847,4 64,4.44771525 64,5 C64,5.55228475 63.5522847,6 63,6 L61,6 Z" id="Combined-Shape" fill="#3388FF" opacity="0.800000012"></path>
                    <path d="M77,6 C76.4477153,6 76,5.55228475 76,5 C76,4.44771525 76.4477153,4 77,4 L79,4 C79.5522847,4 80,4.44771525 80,5 C80,5.55228475 79.5522847,6 79,6 L77,6 Z" id="Rectangle-3-Copy-4" fill="#3388FF" opacity="0.200000003"></path>
                    <path d="M16,4 L24,4 C24.5522847,4 25,4.44771525 25,5 C25,5.55228475 24.5522847,6 24,6 L16,6 C15.4477153,6 15,5.55228475 15,5 C15,4.44771525 15.4477153,4 16,4 Z" id="Rectangle-57-Copy-12" fill="#3388FF" transform="translate(20.000000, 5.000000) rotate(90.000000) translate(-20.000000, -5.000000) "></path>
                    <path d="M2.5,102 L77.5,102 C77.7761424,102 78,101.776142 78,101.5 L78,26 C78,25.4477153 78.4477153,25 79,25 C79.5522847,25 80,25.4477153 80,26 L80,102 C80,103.104569 79.1045695,104 78,104 L2,104 C0.8954305,104 0,103.104569 0,102 L0,6 C0,4.8954305 0.8954305,4 2,4 L48,4 C48.5522847,4 49,4.44771525 49,5 C49,5.55228475 48.5522847,6 48,6 L2.5,6 C2.22385763,6 2,6.22385763 2,6.5 L2,101.5 C2,101.776142 2.22385763,102 2.5,102 Z" id="Combined-Shape" fill="#3388FF"></path>
                    <g id="Group-42" transform="translate(12.000000, 32.000000)">
                        <path d="M2,23 C1.44771525,23 1,23.4477153 1,24 L1,32 C1,32.5522847 1.44771525,33 2,33 L54,33 C54.5522847,33 55,32.5522847 55,32 L55,24 C55,23.4477153 54.5522847,23 54,23 L2,23 Z" id="Rectangle-5-Copy-2" stroke="url(#linearGradient-1)" stroke-width="2"></path>
                        <g id="勾" transform="translate(25.000000, 0.000000)" fill-rule="nonzero">
                            <rect id="矩形" fill="#000000" opacity="0" x="0" y="0" width="40" height="40"></rect>
                            <path d="M14.6666667,36.4666667 C14.1333333,36.4666667 13.7777778,36.2861538 13.4222222,35.9251282 L4.53333334,26.8994872 C3.82222222,26.1774359 3.82222222,25.094359 4.53333334,24.3723077 C5.24444447,23.6502564 6.31111114,23.6502564 7.02222222,24.3723077 L14.6666667,32.134359 L32.9777778,13.5415385 C33.6888889,12.8194872 34.7555556,12.8194872 35.4666667,13.5415385 C36.1777778,14.2635898 36.1777778,15.3466667 35.4666667,16.068718 L15.9111111,35.9251282 C15.5555556,36.2861538 15.2,36.4666667 14.6666667,36.4666667 Z" id="路径备份" stroke="#C1DBFF" fill="#C1DBFF"></path>
                            <path d="M15.6666667,31.4666667 C15.1333333,31.4666667 14.7777778,31.2861538 14.4222222,30.9251282 L5.53333334,21.8994872 C4.82222222,21.1774359 4.82222222,20.094359 5.53333334,19.3723077 C6.24444447,18.6502564 7.31111114,18.6502564 8.02222222,19.3723077 L15.6666667,27.134359 L33.9777778,8.54153847 C34.6888889,7.81948718 35.7555556,7.81948718 36.4666667,8.54153847 C37.1777778,9.26358977 37.1777778,10.3466667 36.4666667,11.068718 L16.9111111,30.9251282 C16.5555556,31.2861538 16.2,31.4666667 15.6666667,31.4666667 Z" id="路径" stroke="#3388FF" fill="#3388FF"></path>
                        </g>
                        <path d="M2,3 C1.44771525,3 1,3.44771525 1,4 L1,12 C1,12.5522847 1.44771525,13 2,13 L54,13 C54.5522847,13 55,12.5522847 55,12 L55,4 C55,3.44771525 54.5522847,3 54,3 L2,3 Z" id="Rectangle-5-Copy-2" stroke="url(#linearGradient-2)" stroke-width="2"></path>
                        <path d="M2,43 C1.44771525,43 1,43.4477153 1,44 L1,52 C1,52.5522847 1.44771525,53 2,53 L54,53 C54.5522847,53 55,52.5522847 55,52 L55,44 C55,43.4477153 54.5522847,43 54,43 L2,43 Z" id="Rectangle-5-Copy-2" stroke="url(#linearGradient-3)" stroke-width="2"></path>
                    </g>
                    <path d="M1,15 L49,15" id="Path-2" stroke="#3388FF" stroke-width="2" stroke-linecap="round"></path>
                </g>
            </g>
        </g>
    </g>
</svg>