<?xml version="1.0" encoding="UTF-8"?>
<!--
  - Licensed to the Apache Software Foundation (ASF) under one or more
  - contributor license agreements. See the NOTICE file distributed with this
  - work for additional information regarding copyright ownership. The ASF
  - licenses this file to You under the Apache License, Version 2.0 (the
  - "License"); you may not use this file except in compliance with the License.
  - You may obtain a copy of the License at
  -
  -     http://www.apache.org/licenses/LICENSE-2.0
  -
  - Unless required by applicable law or agreed to in writing, software
  - distributed under the License is distributed on an "AS IS" BASIS, WITHOUT
  - WARRANTIES OR CONDITIONS OF ANY KIND, either express or implied. See the
  - License for the specific language governing permissions and limitations
  - under the License.
  -->

<svg width="32px" height="32px" viewBox="0 0 32 32" version="1.1" xmlns="http://www.w3.org/2000/svg" xmlns:xlink="http://www.w3.org/1999/xlink">
    <title>画板</title>
    <g id="画板" stroke="none" stroke-width="1" fill="none" fill-rule="evenodd">
        <g id="ic_guanli_normal" transform="translate(7.000000, 8.000000)" fill="#666666" fill-rule="nonzero">
            <path d="M1.00676984,1.01317619 L1.00676984,15.0017857 L17.125,15.0017857 L17.0092621,4.00379944 L12.0003662,4.00379944 C11.5781698,4.00379944 11.201004,3.91885376 10.9676514,3.64685059 C10.9393299,3.59616941 10.8652143,3.54187405 10.8500714,3.50674564 L9.06588492,1.01317619 L1.00676984,1.01317619 Z M11.7554414,3.00928711 L16.875,3.00928711 C17.4963164,3.00928711 18,3.5129707 18,4.13428711 L18,14.8278516 C18,15.449168 17.4963164,15.9528516 16.875,15.9528516 L1.125,15.9528516 C0.503683594,15.9528516 0,15.449168 0,14.8278516 L0,1.125 C0,0.503683594 0.503683594,-1.27009514e-13 1.125,-1.27009514e-13 L9.07885547,-1.27009514e-13 C9.50460649,-1.27009514e-13 9.89387994,0.24035006 10.084623,0.620982422 L11.7554414,3.00928711 Z M9.5491758,5.93254245 L12.3573516,9.00532174 C12.5770078,9.22497799 12.9331758,9.22497799 13.1528321,9.00532174 C13.3725059,8.78564791 13.3725059,8.42949752 13.1528321,8.20982369 L9.42948635,4.24288035 C9.20981252,4.02320655 8.85366213,4.02320655 8.6339883,4.24288035 C8.62079557,4.25606705 8.60825896,4.26989435 8.59642385,4.28431195 L4.84054107,8.20982369 C4.62086717,8.42949752 4.62086717,8.78564791 4.84054107,9.00532174 C5.06019727,9.22497799 5.41636527,9.22497799 5.63602147,9.00532174 L8.42408791,6.02547795 L8.41283791,13.3443588 C8.41283791,13.655017 8.66466213,13.9068588 8.97533791,13.9068588 C9.28599612,13.9068588 9.53783791,13.655017 9.53783791,13.3443588 L9.5491758,5.93254245 L9.5491758,5.93254245 Z" id="形状"></path>
        </g>
    </g>
</svg>