<?xml version="1.0" encoding="UTF-8"?>
<svg width="12px" height="12px" viewBox="0 0 12 12" version="1.1" xmlns="http://www.w3.org/2000/svg" xmlns:xlink="http://www.w3.org/1999/xlink">
    <!-- Generator: Sketch 55 (78076) - https://sketchapp.com -->
    <title>ic_error_12</title>
    <desc>Created with Sketch.</desc>
    <g id="ic_error_12" stroke="none" stroke-width="1" fill="none" fill-rule="evenodd">
        <g id="error-circle" fill="#E64552" fill-rule="nonzero">
            <path d="M6.125,5.41789322 L8.14644661,3.39644661 C8.34170876,3.20118446 8.65829124,3.20118446 8.85355339,3.39644661 C9.04881554,3.59170876 9.04881554,3.90829124 8.85355339,4.10355339 L6.83210678,6.125 L8.85355339,8.14644661 C9.04881554,8.34170876 9.04881554,8.65829124 8.85355339,8.85355339 C8.65829124,9.04881554 8.34170876,9.04881554 8.14644661,8.85355339 L6.125,6.83210678 L4.10355339,8.85355339 C3.90829124,9.04881554 3.59170876,9.04881554 3.39644661,8.85355339 C3.20118446,8.65829124 3.20118446,8.34170876 3.39644661,8.14644661 L5.41789322,6.125 L3.39644661,4.10355339 C3.20118446,3.90829124 3.20118446,3.59170876 3.39644661,3.39644661 C3.59170876,3.20118446 3.90829124,3.20118446 4.10355339,3.39644661 L6.125,5.41789322 Z M6,12 C2.6862915,12 0,9.3137085 0,6 C0,2.6862915 2.6862915,0 6,0 C9.3137085,0 12,2.6862915 12,6 C12,9.3137085 9.3137085,12 6,12 Z M6,11 C8.76142375,11 11,8.76142375 11,6 C11,3.23857625 8.76142375,1 6,1 C3.23857625,1 1,3.23857625 1,6 C1,8.76142375 3.23857625,11 6,11 Z" id="形状结合"></path>
        </g>
    </g>
</svg>