<?xml version="1.0" encoding="UTF-8"?>
<!--
  - Licensed to the Apache Software Foundation (ASF) under one or more
  - contributor license agreements. See the NOTICE file distributed with this
  - work for additional information regarding copyright ownership. The ASF
  - licenses this file to You under the Apache License, Version 2.0 (the
  - "License"); you may not use this file except in compliance with the License.
  - You may obtain a copy of the License at
  -
  -     http://www.apache.org/licenses/LICENSE-2.0
  -
  - Unless required by applicable law or agreed to in writing, software
  - distributed under the License is distributed on an "AS IS" BASIS, WITHOUT
  - WARRANTIES OR CONDITIONS OF ANY KIND, either express or implied. See the
  - License for the specific language governing permissions and limitations
  - under the License.
  -->

<svg width="100px" height="104px" viewBox="0 0 100 104" version="1.1" xmlns="http://www.w3.org/2000/svg" xmlns:xlink="http://www.w3.org/1999/xlink">
    <!-- Generator: Sketch 55 (78076) - https://sketchapp.com -->
    <title>ic_jiance_fail备份</title>
    <desc>Created with Sketch.</desc>
    <defs>
        <linearGradient x1="-1.11022302e-14%" y1="50%" x2="100%" y2="50%" id="linearGradient-1">
            <stop stop-color="#3388FF" stop-opacity="0.5" offset="0%"></stop>
            <stop stop-color="#3388FF" stop-opacity="0" offset="100%"></stop>
        </linearGradient>
    </defs>
    <g id="V1.1视觉" stroke="none" stroke-width="1" fill="none" fill-rule="evenodd">
        <g id="5loading资源" transform="translate(-957.000000, -423.000000)">
            <g id="card-2" transform="translate(216.000000, 231.000000)">
                <g id="编组-2" transform="translate(532.000000, 172.000000)">
                    <g id="ic_jiance_fail备份" transform="translate(187.000000, 0.000000)">
                        <g id="Group">
                            <polygon id="Path" points="1.10705433e-15 1.66058149e-15 144 7.46676642e-16 144 144 4.42821732e-15 144"></polygon>
                        </g>
                        <g id="product" transform="translate(22.000000, 20.000000)">
                            <g id="Group-44" transform="translate(78.000000, 39.000000)" fill="#3388FF">
                                <path d="M22,2 L22,56 C22,57.1045695 21.1045695,58 20,58 L1,58 L1,56 L19.5,56 C19.7761424,56 20,55.7761424 20,55.5 L20,2.5 C20,2.22385763 19.7761424,2 19.5,2 L1,2 L1,0 L20,0 C21.1045695,0 22,0.8954305 22,2 Z" id="Combined-Shape"></path>
                            </g>
                            <path d="M79.0344828,51 L91.9655172,51 C92.5368463,51 93,51.4477153 93,52 C93,52.5522847 92.5368463,53 91.9655172,53 L79.0344828,53 C78.4631537,53 78,52.5522847 78,52 C78,51.4477153 78.4631537,51 79.0344828,51 Z" id="Rectangle-57-Copy-13" fill="#3388FF" opacity="0.5"></path>
                            <path d="M79.0344828,59 L91.9655172,59 C92.5368463,59 93,59.4477153 93,60 C93,60.5522847 92.5368463,61 91.9655172,61 L79.0344828,61 C78.4631537,61 78,60.5522847 78,60 C78,59.4477153 78.4631537,59 79.0344828,59 Z" id="Rectangle-57-Copy-13" fill="#3388FF" opacity="0.5"></path>
                            <path d="M79.0344828,67 L91.9655172,67 C92.5368463,67 93,67.4477153 93,68 C93,68.5522847 92.5368463,69 91.9655172,69 L79.0344828,69 C78.4631537,69 78,68.5522847 78,68 C78,67.4477153 78.4631537,67 79.0344828,67 Z" id="Rectangle-57-Copy-13" fill="#3388FF" opacity="0.5"></path>
                            <path d="M79.0344828,75 L91.9655172,75 C92.5368463,75 93,75.4477153 93,76 C93,76.5522847 92.5368463,77 91.9655172,77 L79.0344828,77 C78.4631537,77 78,76.5522847 78,76 C78,75.4477153 78.4631537,75 79.0344828,75 Z" id="Rectangle-57-Copy-13" fill="#3388FF" opacity="0.5"></path>
                            <path d="M79.0344828,83 L91.9655172,83 C92.5368463,83 93,83.4477153 93,84 C93,84.5522847 92.5368463,85 91.9655172,85 L79.0344828,85 C78.4631537,85 78,84.5522847 78,84 C78,83.4477153 78.4631537,83 79.0344828,83 Z" id="Rectangle-57-Copy-13" fill="#3388FF" opacity="0.5"></path>
                            <g id="Group-43">
                                <path d="M68,6 C67.4477153,6 67,5.55228475 67,5 C67,4.44771525 67.4477153,4 68,4 L72,4 C72.5522847,4 73,4.44771525 73,5 C73,5.55228475 72.5522847,6 72,6 L68,6 Z" id="Rectangle-3-Copy-2" fill="#3388FF" opacity="0.5"></path>
                                <path d="M61,6 L61,9 C61,9.55228475 60.5522847,10 60,10 C59.4477153,10 59,9.55228475 59,9 L59,6 L53,6 C52.4477153,6 52,5.55228475 52,5 C52,4.44771525 52.4477153,4 53,4 L59,4 L59,1 C59,0.44771525 59.4477153,3.38176876e-17 60,0 C60.5522847,-3.38176876e-17 61,0.44771525 61,1 L61,4 L63,4 C63.5522847,4 64,4.44771525 64,5 C64,5.55228475 63.5522847,6 63,6 L61,6 Z" id="Combined-Shape" fill="#3388FF" opacity="0.800000012"></path>
                                <path d="M77,6 C76.4477153,6 76,5.55228475 76,5 C76,4.44771525 76.4477153,4 77,4 L79,4 C79.5522847,4 80,4.44771525 80,5 C80,5.55228475 79.5522847,6 79,6 L77,6 Z" id="Rectangle-3-Copy-4" fill="#3388FF" opacity="0.200000003"></path>
                                <path d="M16,4 L24,4 C24.5522847,4 25,4.44771525 25,5 C25,5.55228475 24.5522847,6 24,6 L16,6 C15.4477153,6 15,5.55228475 15,5 C15,4.44771525 15.4477153,4 16,4 Z" id="Rectangle-57-Copy-12" fill="#3388FF" transform="translate(20.000000, 5.000000) rotate(90.000000) translate(-20.000000, -5.000000) "></path>
                                <path d="M2.5,102 L77.5,102 C77.7761424,102 78,101.776142 78,101.5 L78,26 C78,25.4477153 78.4477153,25 79,25 C79.5522847,25 80,25.4477153 80,26 L80,102 C80,103.104569 79.1045695,104 78,104 L2,104 C0.8954305,104 0,103.104569 0,102 L0,6 C0,4.8954305 0.8954305,4 2,4 L48,4 C48.5522847,4 49,4.44771525 49,5 C49,5.55228475 48.5522847,6 48,6 L2.5,6 C2.22385763,6 2,6.22385763 2,6.5 L2,101.5 C2,101.776142 2.22385763,102 2.5,102 Z" id="Combined-Shape" fill="#3388FF"></path>
                                <g id="Group-42" transform="translate(12.000000, 34.000000)">
                                    <path d="M2,2 L2,10 L54,10 L54,2 L2,2 Z M2,0 L54,0 C55.1045695,0 56,0.8954305 56,2 L56,10 C56,11.1045695 55.1045695,12 54,12 L2,12 C0.8954305,12 0,11.1045695 0,10 L0,2 C0,0.8954305 0.8954305,0 2,0 Z" id="Rectangle-5-Copy" fill="url(#linearGradient-1)" fill-rule="nonzero"></path>
                                    <path d="M2,21 C1.44771525,21 1,21.4477153 1,22 L1,30 C1,30.5522847 1.44771525,31 2,31 L54,31 C54.5522847,31 55,30.5522847 55,30 L55,22 C55,21.4477153 54.5522847,21 54,21 L2,21 Z" id="Rectangle-5-Copy-2" stroke="url(#linearGradient-1)" stroke-width="2"></path>
                                    <path d="M2,41 C1.44771525,41 1,41.4477153 1,42 L1,50 C1,50.5522847 1.44771525,51 2,51 L54,51 C54.5522847,51 55,50.5522847 55,50 L55,42 C55,41.4477153 54.5522847,41 54,41 L2,41 Z" id="Rectangle-5-Copy-2" stroke="url(#linearGradient-1)" stroke-width="2"></path>
                                </g>
                                <g id="Group-57" transform="translate(54.213203, 55.506097) scale(1, -1) rotate(45.000000) translate(-54.213203, -55.506097) translate(34.713203, 39.006097)">
                                    <g id="Group-54" transform="translate(0.000000, 0.000000)"></g>
                                </g>
                                <path d="M1,15 L49,15" id="Path-2" stroke="#3388FF" stroke-width="2" stroke-linecap="round"></path>
                            </g>
                        </g>
                    </g>
                </g>
            </g>
        </g>
    </g>
</svg>