<?xml version="1.0" encoding="UTF-8"?>
<!--
  - Licensed to the Apache Software Foundation (ASF) under one or more
  - contributor license agreements. See the NOTICE file distributed with this
  - work for additional information regarding copyright ownership. The ASF
  - licenses this file to You under the Apache License, Version 2.0 (the
  - "License"); you may not use this file except in compliance with the License.
  - You may obtain a copy of the License at
  -
  -     http://www.apache.org/licenses/LICENSE-2.0
  -
  - Unless required by applicable law or agreed to in writing, software
  - distributed under the License is distributed on an "AS IS" BASIS, WITHOUT
  - WARRANTIES OR CONDITIONS OF ANY KIND, either express or implied. See the
  - License for the specific language governing permissions and limitations
  - under the License.
  -->

<svg width="13px" height="14px" viewBox="0 0 13 14" version="1.1" xmlns="http://www.w3.org/2000/svg" xmlns:xlink="http://www.w3.org/1999/xlink">
    <!-- Generator: Sketch 55 (78076) - https://sketchapp.com -->
    <title>图标 / M / 目录</title>
    <desc>Created with Sketch.</desc>
    <g id="V1.2" stroke="none" stroke-width="1" fill="none" fill-rule="evenodd">
        <g id="列表展示-顶点类型" transform="translate(-272.000000, -220.000000)" fill="#FFFFFF" fill-rule="nonzero">
            <g id="编组-2" transform="translate(256.000000, 210.000000)">
                <path d="M18.4232456,11.0769231 C17.6832325,11.0769231 17.0833333,11.6732725 17.0833333,12.4089069 L17.0833333,21.5910931 C17.0833333,22.3267275 17.6832325,22.9230769 18.4232456,22.9230769 L26.5767544,22.9230769 C27.3167675,22.9230769 27.9166667,22.3267275 27.9166667,21.5910931 L27.9166667,12.4089069 C27.9166667,11.6732725 27.3167675,11.0769231 26.5767544,11.0769231 L18.4232456,11.0769231 Z M18.4232456,10 L26.5767544,10 C27.915076,10 29,11.0785043 29,12.4089069 L29,21.5910931 C29,22.9214957 27.915076,24 26.5767544,24 L18.4232456,24 C17.084924,24 16,22.9214957 16,21.5910931 L16,12.4089069 C16,11.0785043 17.084924,10 18.4232456,10 Z M19.5574128,15 C19.2495622,15 19,14.7761424 19,14.5 C19,14.2238576 19.2495622,14 19.5574128,14 L25.4425872,14 C25.7504378,14 26,14.2238576 26,14.5 C26,14.7761424 25.7504378,15 25.4425872,15 L19.5574128,15 Z M19.5574128,17 C19.2495622,17 19,16.7761424 19,16.5 C19,16.2238576 19.2495622,16 19.5574128,16 L25.4425872,16 C25.7504378,16 26,16.2238576 26,16.5 C26,16.7761424 25.7504378,17 25.4425872,17 L19.5574128,17 Z M19.5931392,20 C19.2655575,20 19,19.7761424 19,19.5 C19,19.2238576 19.2655575,19 19.5931392,19 L23.4068608,19 C23.7344425,19 24,19.2238576 24,19.5 C24,19.7761424 23.7344425,20 23.4068608,20 L19.5931392,20 Z" id="图标-/-M-/-目录"></path>
            </g>
        </g>
    </g>
</svg>