<?xml version="1.0" encoding="UTF-8"?>
<!--
  - Licensed to the Apache Software Foundation (ASF) under one or more
  - contributor license agreements. See the NOTICE file distributed with this
  - work for additional information regarding copyright ownership. The ASF
  - licenses this file to You under the Apache License, Version 2.0 (the
  - "License"); you may not use this file except in compliance with the License.
  - You may obtain a copy of the License at
  -
  -     http://www.apache.org/licenses/LICENSE-2.0
  -
  - Unless required by applicable law or agreed to in writing, software
  - distributed under the License is distributed on an "AS IS" BASIS, WITHOUT
  - WARRANTIES OR CONDITIONS OF ANY KIND, either express or implied. See the
  - License for the specific language governing permissions and limitations
  - under the License.
  -->

<svg width="16px" height="16px" viewBox="0 0 16 16" version="1.1" xmlns="http://www.w3.org/2000/svg" xmlns:xlink="http://www.w3.org/1999/xlink">
    <!-- Generator: Sketch 55 (78076) - https://sketchapp.com -->
    <title>ic_quanping_16</title>
    <desc>Created with Sketch.</desc>
    <g id="ic_quanping_16" stroke="none" stroke-width="1" fill="none" fill-rule="evenodd">
        <g id="全屏" fill="#666666" fill-rule="nonzero">
            <path d="M3.1515364,5.85265424 C3.15153969,6.12042866 2.93446829,6.33750539 2.66669387,6.33750867 C2.39891944,6.33751196 2.18184272,6.12044056 2.18183943,5.85266614 L2.18181818,4.12127842 C2.18180504,3.05018072 3.05009062,2.18187383 4.12118832,2.18186068 L5.85265424,2.18183943 C6.12042866,2.18183615 6.33750539,2.39890754 6.33750867,2.66668197 C6.33751196,2.93445639 6.12044056,3.15153311 5.85266614,3.1515364 L4.12120022,3.15155765 C3.58565137,3.15156422 3.15150858,3.58571767 3.15151515,4.12126652 L3.1515364,5.85265424 Z M12.8657347,10.1646168 C12.8657314,9.8968424 13.0828028,9.67976567 13.3505772,9.67976239 C13.6183516,9.6797591 13.8354283,9.8968305 13.8354316,10.1646049 L13.8354529,11.8959926 C13.835466,12.9670903 12.9671804,13.8353972 11.8960827,13.8354104 L10.1646168,13.8354316 C9.8968424,13.8354349 9.67976567,13.6183635 9.67976239,13.3505891 C9.6797591,13.0828147 9.8968305,12.8657379 10.1646049,12.8657347 L11.8960708,12.8657134 C12.4316197,12.8657068 12.8657625,12.4315534 12.8657559,11.8960045 L12.8657347,10.1646168 Z M5.85265424,12.8657347 C6.12042866,12.8657314 6.33750539,13.0828028 6.33750867,13.3505772 C6.33751196,13.6183516 6.12044056,13.8354283 5.85266614,13.8354316 L4.12127842,13.8354529 C3.05018072,13.835466 2.18187383,12.9671804 2.18186068,11.8960827 L2.18183943,10.1646168 C2.18183615,9.8968424 2.39890754,9.67976567 2.66668197,9.67976239 C2.93445639,9.6797591 3.15153311,9.8968305 3.1515364,10.1646049 L3.15155765,11.8960708 C3.15156422,12.4316197 3.58571767,12.8657625 4.12126652,12.8657559 L5.85265424,12.8657347 Z M10.1646168,3.1515364 C9.8968424,3.15153969 9.67976567,2.93446829 9.67976239,2.66669387 C9.6797591,2.39891944 9.8968305,2.18184272 10.1646049,2.18183943 L11.8959926,2.18181818 C12.9670903,2.18180504 13.8353972,3.05009062 13.8354104,4.12118832 L13.8354316,5.85265424 C13.8354349,6.12042866 13.6183635,6.33750539 13.3505891,6.33750867 C13.0828147,6.33751196 12.8657379,6.12044056 12.8657347,5.85266614 L12.8657134,4.12120022 C12.8657068,3.58565137 12.4315534,3.15150858 11.8960045,3.15151515 L10.1646168,3.1515364 Z" id="图标-/-Q-/-全屏-/-66"></path>
        </g>
    </g>
</svg>