<?xml version="1.0" encoding="UTF-8"?>
<!--
  - Licensed to the Apache Software Foundation (ASF) under one or more
  - contributor license agreements. See the NOTICE file distributed with this
  - work for additional information regarding copyright ownership. The ASF
  - licenses this file to You under the Apache License, Version 2.0 (the
  - "License"); you may not use this file except in compliance with the License.
  - You may obtain a copy of the License at
  -
  -     http://www.apache.org/licenses/LICENSE-2.0
  -
  - Unless required by applicable law or agreed to in writing, software
  - distributed under the License is distributed on an "AS IS" BASIS, WITHOUT
  - WARRANTIES OR CONDITIONS OF ANY KIND, either express or implied. See the
  - License for the specific language governing permissions and limitations
  - under the License.
  -->

<svg width="10px" height="10px" viewBox="0 0 10 10" version="1.1" xmlns="http://www.w3.org/2000/svg" xmlns:xlink="http://www.w3.org/1999/xlink">
    <!-- Generator: Sketch 55 (78076) - https://sketchapp.com -->
    <title>ic_shuaxin</title>
    <desc>Created with Sketch.</desc>
    <g id="V1.3.0视觉" stroke="none" stroke-width="1" fill="none" fill-rule="evenodd">
        <g id="5" transform="translate(-1028.000000, -622.000000)" fill="#999999">
            <g id="界面" transform="translate(40.000000, 134.000000)">
                <g id="编组-7" transform="translate(620.000000, 466.000000)">
                    <g id="Group" transform="translate(0.000000, 20.000000)">
                        <g id="刷新-S01" transform="translate(368.000000, 2.000000)">
                            <g id="刷新">
                                <path d="M8.69999695,1.18536925 C8.69999695,0.909226871 8.92385457,0.685369246 9.19999695,0.685369246 C9.47613932,0.685369246 9.69999695,0.909226871 9.69999695,1.18536925 L9.69999695,3.08598141 C9.69999695,3.62183041 8.97128928,3.78227657 8.74623423,3.29597998 C8.10368437,1.90756493 6.71173609,1 5.15489705,1 C2.97066604,1 1.19999695,2.77066909 1.19999695,4.9549001 C1.19999695,7.13913111 2.97066604,8.9098002 5.15489705,8.9098002 C6.67199581,8.9098002 8.03447038,8.04820172 8.69830409,6.71367497 C8.82129013,6.46643208 9.12141997,6.36570201 9.36866286,6.48868805 C9.61590575,6.61167409 9.71663582,6.91180394 9.59364978,7.15904682 C8.76236804,8.83019986 7.05515983,9.9098002 5.15489705,9.9098002 C2.41838129,9.9098002 0.199996948,7.69141586 0.199996948,4.9549001 C0.199996948,2.21838434 2.41838129,0 5.15489705,0 C6.5221353,0 7.7880538,0.558939989 8.69999695,1.49233093 L8.69999695,1.18536925 Z" id="Oval-6" fill-rule="nonzero"></path>
                            </g>
                        </g>
                    </g>
                </g>
            </g>
        </g>
    </g>
</svg>