<?xml version="1.0" encoding="UTF-8"?>
<!--
  - Licensed to the Apache Software Foundation (ASF) under one or more
  - contributor license agreements. See the NOTICE file distributed with this
  - work for additional information regarding copyright ownership. The ASF
  - licenses this file to You under the Apache License, Version 2.0 (the
  - "License"); you may not use this file except in compliance with the License.
  - You may obtain a copy of the License at
  -
  -     http://www.apache.org/licenses/LICENSE-2.0
  -
  - Unless required by applicable law or agreed to in writing, software
  - distributed under the License is distributed on an "AS IS" BASIS, WITHOUT
  - WARRANTIES OR CONDITIONS OF ANY KIND, either express or implied. See the
  - License for the specific language governing permissions and limitations
  - under the License.
  -->

<svg width="32px" height="32px" viewBox="0 0 32 32" version="1.1" xmlns="http://www.w3.org/2000/svg" xmlns:xlink="http://www.w3.org/1999/xlink">
    <title>画板</title>
    <g id="画板" stroke="none" stroke-width="1" fill="none" fill-rule="evenodd">
        <g id="ic_guanli_normal" transform="translate(7.000000, 8.000000)"></g>
        <path d="M16,25 C13.4451122,24.9415043 11.3211312,24.0656906 9.62797785,22.3720053 C7.9348641,20.6788538 7.05847597,18.5548751 7,16 C7.05849575,13.4451051 7.93431039,11.3211264 9.62799763,9.62797497 C11.3211312,7.93486307 13.4451122,7.05847591 16,7 C18.5548878,7.05849568 20.6788688,7.93430936 22.3720222,9.62799474 C24.0651359,11.3211264 24.9415241,13.4451051 25,16 C24.9415043,18.5548751 24.0656896,20.6788538 22.3720024,22.3720053 C20.6788688,24.0651171 18.5548878,24.9415043 16,25 L16,25 Z M21.5766343,21.5766182 C23.061651,20.0916228 23.8232625,18.2443615 23.8755883,16.0258564 C23.8232625,13.7556187 23.0616312,11.9083574 21.5766343,10.423362 C20.0916372,8.93834684 18.2443739,8.1767362 16.0258663,8.12441045 C13.7556261,8.1767362 11.9083628,8.93836662 10.4233658,10.423362 C8.93834897,11.9083574 8.17673749,13.7556187 8.12441168,15.9741239 C8.17673749,18.2443615 8.93836874,20.0916228 10.4233658,21.5766182 C11.9027268,23.0560172 13.7415658,23.8176278 16,23.8744426 C18.2584342,23.8176278 20.0972732,23.0559974 21.5766343,21.5766182 Z M16,15.9999901 L19.9375074,15.9999901 C20.248169,15.9999901 20.5000099,16.2518308 20.5000099,16.562492 C20.5000099,16.8731532 20.248169,17.1249938 19.9375074,17.1249938 L15.4375074,17.1249938 C15.2883183,17.1249938 15.145238,17.0657363 15.0397453,16.9602437 C14.9342526,16.8547512 14.8749951,16.7116711 14.8749951,16.5624821 L14.8749951,10.9374833 C14.8749951,10.6268221 15.126836,10.3749815 15.4374975,10.3749815 C15.7481591,10.3749815 16,10.6268221 16,10.9374833 L16,15.9999901 Z" id="形状" fill="#2B65FF" fill-rule="nonzero"></path>
    </g>
</svg>