<?xml version="1.0" encoding="UTF-8"?>
<!--
  - Licensed to the Apache Software Foundation (ASF) under one or more
  - contributor license agreements. See the NOTICE file distributed with this
  - work for additional information regarding copyright ownership. The ASF
  - licenses this file to You under the Apache License, Version 2.0 (the
  - "License"); you may not use this file except in compliance with the License.
  - You may obtain a copy of the License at
  -
  -     http://www.apache.org/licenses/LICENSE-2.0
  -
  - Unless required by applicable law or agreed to in writing, software
  - distributed under the License is distributed on an "AS IS" BASIS, WITHOUT
  - WARRANTIES OR CONDITIONS OF ANY KIND, either express or implied. See the
  - License for the specific language governing permissions and limitations
  - under the License.
  -->

<svg width="16px" height="16px" viewBox="0 0 16 16" version="1.1" xmlns="http://www.w3.org/2000/svg" xmlns:xlink="http://www.w3.org/1999/xlink">
    <!-- Generator: Sketch 55 (78076) - https://sketchapp.com -->
    <title>ic_xiazai_16</title>
    <desc>Created with Sketch.</desc>
    <g id="ic_xiazai_16" stroke="none" stroke-width="1" fill="none" fill-rule="evenodd">
        <g id="下载" fill="#666666" fill-rule="nonzero">
            <path d="M7.32260101,13.2424508 L7.32260101,8.16161616 C7.32260101,7.89384174 7.54645864,7.67676768 7.82260101,7.67676768 C8.09874339,7.67676768 8.32260101,7.89384174 8.32260101,8.16161616 L8.32260101,13.2122 L9.45071704,12.0840582 C9.64006,11.8947109 9.94704908,11.8947074 10.1363963,12.0840504 C10.3257436,12.2733933 10.3257471,12.5803824 10.1364042,12.7697297 L8.49603107,14.4101402 C8.1157673,14.7904126 7.4992309,14.7904197 7.11895846,14.4101559 L5.47850264,12.7697375 C5.28915537,12.5803945 5.28915187,12.2734055 5.47849482,12.0840582 C5.66783777,11.8947109 5.97482685,11.8947074 6.16417413,12.0840504 L7.32260101,13.2424508 Z M12.0375223,10.860101 L12.2310606,10.860101 C12.8665461,10.860101 13.3712121,10.382516 13.3712121,9.80714905 L13.3712121,3.47719439 C13.3712121,2.90182739 12.8665461,2.42424242 12.2310606,2.42424242 L3.56439394,2.42424242 C2.9289084,2.42424242 2.42424242,2.90182739 2.42424242,3.47719439 L2.42424242,9.97538705 C2.42424242,10.4985893 2.87426898,10.860101 3.56439394,10.860101 L3.76637568,10.860101 C4.0341501,10.860101 4.25122416,11.0771751 4.25122416,11.3449495 C4.25122416,11.6127239 4.0341501,11.829798 3.76637568,11.829798 L3.56439394,11.829798 C2.37969843,11.829798 1.45454545,11.0866116 1.45454545,9.97538705 L1.45454545,3.47719439 C1.45454545,2.35395391 2.40495404,1.45454545 3.56439394,1.45454545 L12.2310606,1.45454545 C13.3905005,1.45454545 14.3409091,2.35395391 14.3409091,3.47719439 L14.3409091,9.80714905 C14.3409091,10.9303895 13.3905005,11.829798 12.2310606,11.829798 L12.0375223,11.829798 C11.7697479,11.829798 11.5526739,11.6127239 11.5526739,11.3449495 C11.5526739,11.0771751 11.7697479,10.860101 12.0375223,10.860101 Z" id="图标-/-S-/-视频下载/66"></path>
        </g>
    </g>
</svg>