<!--
  -
  - Licensed to the Apache Software Foundation (ASF) under one or more
  - contributor license agreements. See the NOTICE file distributed with this
  - work for additional information regarding copyright ownership. The ASF
  - licenses this file to You under the Apache License, Version 2.0 (the
  - "License"); you may not use this file except in compliance with the License.
  - You may obtain a copy of the License at
  -
  -     http://www.apache.org/licenses/LICENSE-2.0
  -
  - Unless required by applicable law or agreed to in writing, software
  - distributed under the License is distributed on an "AS IS" BASIS, WITHOUT
  - WARRANTIES OR CONDITIONS OF ANY KIND, either express or implied. See the
  - License for the specific language governing permissions and limitations
  - under the License.
  -->

<svg t="1664269730308" class="icon" viewBox="0 0 1024 1024" version="1.1" xmlns="http://www.w3.org/2000/svg" p-id="3076" width="200" height="200"><path d="M896.00324 352c70.7 0 128-57.3 128-128 0-70.6-57.4-128-128-128-70.7 0-128 57.3-128 128 0 18.8 4.1 36.7 11.3 52.8 2.7 6 1.4 13.1-3.3 17.8l-92.9 92.9c-5.4 5.4-13.8 6.3-20.1 2.1-20.3-13.6-44.8-21.5-71-21.5-2.1 0-4.2 0.1-6.3 0.1-6 0.3-11.7-2.8-14.7-8l-58-100.4c-3.4-5.8-2.7-13.1 1.6-18.3 18.6-22.5 29.7-51.6 29.3-83.2C543.10324 89 486.40324 32.6 417.10324 32c-70.6-0.6-128.2 56-129.1 126.3-0.9 69.5 56.5 128.6 126 129.7 9.4 0.1 18.5-0.7 27.4-2.5 6.8-1.4 13.6 1.7 17.1 7.7l50.8 88c3.7 6.5 2.5 14.8-3 19.8-15.7 14.1-27.8 32.1-35 52.4-2.3 6.4-8.4 10.6-15.2 10.6H262.70324c-6.6 0-12.6-4-14.9-10.2-18.1-48-64.3-82.2-118.5-82.8C58.70324 370.3 0.50324 427.6 0.00324 498.1-0.49676 569.2 57.00324 627 128.00324 627c56.7 0 104.8-36.9 121.6-87.9 2.2-6.6 8.3-11.1 15.2-11.1h191.4c6.7 0 12.8 4.2 15 10.6 4.7 13.3 11.5 25.7 20.1 36.6 4 5.1 4.4 12.2 1.2 17.8l-71.8 124.4c-3.7 6.3-11.1 9.4-18.2 7.4-11.1-3.1-22.7-4.7-34.8-4.7-69.7 0.1-127 56.8-127.8 126.6-0.8 71.7 57.4 130 129.1 129.4 69.5-0.6 126.3-57.3 126.9-126.8 0.3-28-8.5-53.9-23.5-75.1-3.6-5.1-3.9-11.8-0.8-17.2L546.00324 628.4c3.5-6 10.5-9.2 17.3-7.6 9.2 2.1 18.9 3.2 28.8 3.2 17.7 0 34.6-3.6 49.9-10.1 7.4-3.1 16-0.2 20 6.8l79 136.8c3.5 6.1 2.5 13.8-2.3 18.9-21.6 22.9-34.7 53.7-34.7 87.6 0 70.9 57.9 128.5 128.9 128 69.7-0.5 126.2-56.7 127.1-126.3 0.9-70.1-57-129.3-127.1-129.7-6.2 0-12.3 0.4-18.3 1.2-6.5 0.9-12.8-2.2-16.1-7.8l-92.2-159.7c-2.7-4.7-2.9-10.4-0.5-15.2 9-17.5 14.1-37.4 14.1-58.4 0-13-2-25.6-5.6-37.5-1.7-5.6-0.1-11.7 4-15.9l101.4-101.4c4.9-4.9 12.4-6 18.7-2.9 17.4 8.7 36.9 13.6 57.6 13.6zM416.00324 224c-35.3 0-64-28.7-64-64s28.7-64 64-64 64 28.7 64 64-28.7 64-64 64zM128.00324 563c-35.3 0-64-28.7-64-64s28.7-64 64-64 64 28.7 64 64-28.7 64-64 64z m240 349c-35.3 0-64-28.7-64-64s28.7-64 64-64 64 28.7 64 64-28.7 64-64 64z m464-112c35.3 0 64 28.7 64 64s-28.7 64-64 64-64-28.7-64-64 28.7-64 64-64zM592.00324 560c-35.3 0-64-28.7-64-64s28.7-64 64-64 64 28.7 64 64-28.7 64-64 64z m304-400c35.3 0 64 28.7 64 64s-28.7 64-64 64-64-28.7-64-64 28.7-64 64-64z" p-id="3077" fill="#1A90FF"></path></svg>
