<!--
  -
  - Licensed to the Apache Software Foundation (ASF) under one or more
  - contributor license agreements. See the NOTICE file distributed with this
  - work for additional information regarding copyright ownership. The ASF
  - licenses this file to You under the Apache License, Version 2.0 (the
  - "License"); you may not use this file except in compliance with the License.
  - You may obtain a copy of the License at
  -
  -     http://www.apache.org/licenses/LICENSE-2.0
  -
  - Unless required by applicable law or agreed to in writing, software
  - distributed under the License is distributed on an "AS IS" BASIS, WITHOUT
  - WARRANTIES OR CONDITIONS OF ANY KIND, either express or implied. See the
  - License for the specific language governing permissions and limitations
  - under the License.
  -->

<svg t="1664269848403" class="icon" viewBox="0 0 1024 1024" version="1.1" xmlns="http://www.w3.org/2000/svg" p-id="6184" width="200" height="200"><path d="M516.7616 102.4a76.8 76.8 0 0 1 0 153.6l2.8672-0.1536v56.832a38.4 38.4 0 0 1 32.9728 32.8192l0.3584 5.2224a38.4 38.4 0 0 1-38.4 38.4l5.0688-0.3584 0.0512 72.6016c8.8064 1.3312 16.896 4.9152 23.6544 10.1376l52.7872-52.8896a38.4 38.4 0 0 1 53.4016-53.4528l44.544-44.544a76.8 76.8 0 1 1 9.5744 12.0832l-43.4688 43.52a38.4 38.4 0 0 1-52.8896 53.0944L553.984 482.6624c4.6592 6.656 7.7824 14.592 8.8576 23.0912l62.8224 0.0512a38.4 38.4 0 0 1 74.752 0.0512l83.8656 0.1024a76.8 76.8 0 1 1-1.6384 15.36h-81.7664a38.4 38.4 0 0 1-75.6736-0.1536l-62.8224-0.0512a50.9952 50.9952 0 0 1-10.0352 22.4256l42.5472 42.9056a38.4 38.4 0 0 1 49.7664 58.2144l66.7648 59.2384a76.8 76.8 0 1 1-6.656 5.9904l-4.352 4.7616-63.488-64a38.4 38.4 0 0 1-42.2912-2.2528l-4.3008-3.7376a38.4 38.4 0 0 1-5.8368-46.7968l-43.3664-43.776a50.8928 50.8928 0 0 1-21.4528 8.5504v62.3616a38.4 38.4 0 0 1-5.12 76.4416l5.0688-0.3584 0.0512 86.7328a76.8 76.8 0 0 1 73.5232 69.3248l0.3584 7.424a76.8 76.8 0 1 1-89.2928-75.776v-88.7296a38.4 38.4 0 0 1 0-74.0352V562.688a50.8416 50.8416 0 0 1-15.0016-4.7616l-42.24 42.3936a38.4 38.4 0 0 1-51.5072 51.6096l-62.5664 62.5664a76.8 76.8 0 1 1-11.0592-10.7008l61.44-61.4912a38.4 38.4 0 0 1 56.5248-51.9168l-2.5088-2.1504 39.2192-39.2192a51.0976 51.0976 0 0 1-14.8992-27.5456H383.3856a38.4 38.4 0 0 1-75.6224-0.1536l-56.9856-0.1024 0.1024 0.7168a76.8 76.8 0 0 1-69.4272 76.4416l-7.3728 0.3584a76.8 76.8 0 1 1 75.1104-92.8768l58.9824 0.0512a38.4 38.4 0 0 1 74.8544 0.1024l78.1312 0.0512a50.8928 50.8928 0 0 1 8.8576-23.3472l-52.8896-53.248a38.4 38.4 0 0 1-52.736-53.248l-38.912-39.2192a76.8 76.8 0 1 1 10.4448-11.3664l39.2192 39.4752a38.4 38.4 0 0 1 53.248 53.6576l52.2752 52.7872a50.944 50.944 0 0 1 23.6032-10.1376V387.7376a38.4 38.4 0 0 1 0-74.0352V254.976A76.8 76.8 0 0 1 516.7616 102.4z" p-id="6185" fill="#1a90ff"></path></svg>
