<!--
  -
  - Licensed to the Apache Software Foundation (ASF) under one or more
  - contributor license agreements. See the NOTICE file distributed with this
  - work for additional information regarding copyright ownership. The ASF
  - licenses this file to You under the Apache License, Version 2.0 (the
  - "License"); you may not use this file except in compliance with the License.
  - You may obtain a copy of the License at
  -
  -     http://www.apache.org/licenses/LICENSE-2.0
  -
  - Unless required by applicable law or agreed to in writing, software
  - distributed under the License is distributed on an "AS IS" BASIS, WITHOUT
  - WARRANTIES OR CONDITIONS OF ANY KIND, either express or implied. See the
  - License for the specific language governing permissions and limitations
  - under the License.
  -->

<svg t="1668753882620"  class="icon"  viewBox="0 0 1024 1024"  version="1.1"  xmlns="http://www.w3.org/2000/svg" p-id="3406" width="200" height="200">
    <path 
        d="M298.666667 170.666667c0 70.58-57.42 128-128 128S42.666667 241.246667 42.666667 170.666667 100.086667 42.666667 170.666667 42.666667s128 57.42 128 128zM512 42.666667c-70.58 0-128 57.42-128 128s57.42 128 128 128 128-57.42 128-128S582.58 42.666667 512 42.666667z m341.333333 256c70.58 0 128-57.42 128-128s-57.42-128-128-128-128 57.42-128 128 57.42 128 128 128zM170.666667 384c-70.58 0-128 57.42-128 128s57.42 128 128 128 128-57.42 128-128-57.42-128-128-128z m341.333333 0c-70.58 0-128 57.42-128 128s57.42 128 128 128 128-57.42 128-128-57.42-128-128-128z m341.333333 0c-70.58 0-128 57.42-128 128s57.42 128 128 128 128-57.42 128-128-57.42-128-128-128zM170.666667 725.333333c-70.58 0-128 57.42-128 128s57.42 128 128 128 128-57.42 128-128-57.42-128-128-128z m341.333333 0c-70.58 0-128 57.42-128 128s57.42 128 128 128 128-57.42 128-128-57.42-128-128-128z m341.333333 0c-70.58 0-128 57.42-128 128s57.42 128 128 128 128-57.42 128-128-57.42-128-128-128z" 
        fill="#1890ff" 
        p-id="3407"
    >
    </path>
</svg>
