<!--
  -
  - Licensed to the Apache Software Foundation (ASF) under one or more
  - contributor license agreements. See the NOTICE file distributed with this
  - work for additional information regarding copyright ownership. The ASF
  - licenses this file to You under the Apache License, Version 2.0 (the
  - "License"); you may not use this file except in compliance with the License.
  - You may obtain a copy of the License at
  -
  -     http://www.apache.org/licenses/LICENSE-2.0
  -
  - Unless required by applicable law or agreed to in writing, software
  - distributed under the License is distributed on an "AS IS" BASIS, WITHOUT
  - WARRANTIES OR CONDITIONS OF ANY KIND, either express or implied. See the
  - License for the specific language governing permissions and limitations
  - under the License.
  -->

<svg t="1664269759781" class="icon" viewBox="0 0 1024 1024" version="1.1" xmlns="http://www.w3.org/2000/svg" p-id="3325" width="200" height="200"><path d="M896 640c70.7 0 128-57.3 128-128s-57.3-128-128-128h-2c-1.7 0-3.2-1.1-3.8-2.7-5.3-15.2-11.4-30-18.4-44.3-0.8-1.5-0.4-3.4 0.8-4.6 0.5-0.5 1-1 1.5-1.4 50-50 50-131 0-181-25-25-57.8-37.5-90.5-37.5-32.8 0-65.5 12.5-90.5 37.5-0.5 0.5-1 1-1.4 1.5-1.2 1.2-3.1 1.5-4.6 0.8-14.3-7-29.1-13.1-44.3-18.4-1.6-0.6-2.7-2.1-2.7-3.8v-2C640 57.3 582.7 0 512 0S384 57.3 384 128v2c0 1.7-1.1 3.2-2.7 3.8-15.2 5.3-30 11.4-44.3 18.4-1.5 0.8-3.4 0.4-4.6-0.8-0.5-0.5-1-1-1.4-1.5-25-25-57.8-37.5-90.5-37.5-32.8 0-65.5 12.5-90.5 37.5-50 50-50 131 0 181 0.5 0.5 1 1 1.5 1.4 1.2 1.2 1.5 3.1 0.8 4.6-7 14.3-13.1 29.1-18.4 44.3-0.6 1.6-2.1 2.7-3.8 2.7h-2C57.3 384 0 441.3 0 512s57.3 128 128 128h2c1.7 0 3.2 1.1 3.8 2.7 5.3 15.2 11.4 30 18.4 44.3 0.8 1.5 0.4 3.4-0.8 4.6-0.5 0.5-1 1-1.5 1.4-50 50-50 131 0 181 25 25 57.8 37.5 90.5 37.5 32.8 0 65.5-12.5 90.5-37.5 0.5-0.5 1-1 1.4-1.5 1.2-1.2 3.1-1.5 4.6-0.8 14.3 7 29.1 13.1 44.3 18.4 1.6 0.6 2.7 2.1 2.7 3.8v2c0 70.7 57.3 128 128 128s128-57.3 128-128v-2c0-1.7 1.1-3.2 2.7-3.8 15.2-5.3 30-11.4 44.3-18.4 1.5-0.8 3.4-0.4 4.6 0.8 0.5 0.5 1 1 1.4 1.5 25 25 57.8 37.5 90.5 37.5 32.8 0 65.5-12.5 90.5-37.5 50-50 50-131 0-181-0.5-0.5-1-1-1.5-1.4-1.2-1.2-1.5-3.1-0.8-4.6 7-14.3 13.1-29.1 18.4-44.3 0.6-1.6 2.1-2.7 3.8-2.7h2.2zM783.5 176.5c17.1 0 33.2 6.7 45.3 18.8 22.3 22.3 24.7 57.1 7.1 82-2.1 3-4.5 5.8-7.1 8.5-12.1 12.1-28.2 18.7-45.3 18.7-2.6 0-5.1-0.1-7.6-0.4-14.2-1.7-27.4-8-37.7-18.3-10.2-10.4-16.6-23.5-18.2-37.8-0.3-2.5-0.4-5-0.4-7.6 0-17.1 6.7-33.2 18.7-45.3 2.6-2.6 5.5-5 8.5-7.1 10.6-7.5 23.4-11.5 36.7-11.5zM512 64c31.5 0 57.8 22.9 63 53 0.6 3.6 1 7.3 1 11 0 20.4-9.6 38.6-24.5 50.3-10.9 8.6-24.6 13.7-39.5 13.7s-28.6-5.1-39.5-13.7C457.6 166.6 448 148.4 448 128c0-3.8 0.3-7.5 1-11 5.2-30.1 31.5-53 63-53zM176.5 240.5c0-17.1 6.7-33.2 18.8-45.3 12.1-12.1 28.2-18.8 45.3-18.8 13.4 0 26.1 4.1 36.8 11.6 3 2.1 5.8 4.5 8.5 7.1 12.1 12.1 18.7 28.2 18.7 45.3 0 2.5-0.1 5.1-0.4 7.6-1.7 14.2-8 27.4-18.3 37.7-10.5 10.3-23.6 16.7-37.9 18.3-2.5 0.3-5 0.4-7.6 0.4-17.1 0-33.2-6.7-45.3-18.7-2.6-2.6-5-5.5-7.1-8.5-7.5-10.6-11.5-23.4-11.5-36.7zM128 576c-3.8 0-7.5-0.3-11-1-30-5.3-53-31.5-53-63s22.9-57.8 53-63c3.6-0.6 7.3-1 11-1 20.4 0 38.6 9.6 50.3 24.5 8.6 10.9 13.7 24.6 13.7 39.5 0 14.9-5.1 28.6-13.7 39.5-11.7 14.9-29.9 24.5-50.3 24.5z m112.5 271.5c-17.1 0-33.2-6.7-45.3-18.8-12.1-12.1-18.8-28.2-18.8-45.3 0-13.4 4.1-26.1 11.6-36.8 2.1-3 4.5-5.8 7.1-8.5 12.1-12.1 28.2-18.7 45.3-18.7 2.6 0 5.1 0.2 7.6 0.4 14.2 1.7 27.4 8 37.7 18.3 10.3 10.3 16.6 23.5 18.3 37.7 0.3 2.5 0.4 5 0.4 7.6 0 17.1-6.7 33.2-18.7 45.3-2.6 2.6-5.5 5-8.5 7.1-10.6 7.7-23.4 11.7-36.7 11.7zM512 960c-31.5 0-57.8-22.9-63-53-0.6-3.6-1-7.3-1-11 0-20.4 9.6-38.6 24.5-50.3 10.9-8.6 24.6-13.7 39.5-13.7s28.6 5.1 39.5 13.7c14.9 11.7 24.5 29.9 24.5 50.3 0 3.8-0.3 7.5-1 11-5.2 30.1-31.5 53-63 53z m316.8-131.2c-12.1 12.1-28.2 18.8-45.3 18.8-13.4 0-26.1-4.1-36.8-11.6-3-2.1-5.8-4.5-8.5-7.1-12.1-12.1-18.7-28.2-18.7-45.3 0-2.5 0.1-5.1 0.4-7.6 1.7-14.2 8-27.4 18.3-37.7 10.3-10.3 23.4-16.6 37.7-18.3 2.5-0.3 5-0.4 7.6-0.4 17.1 0 33.2 6.7 45.3 18.7 2.7 2.7 5 5.5 7.1 8.5 17.6 24.9 15.2 59.7-7.1 82z m-7.2-186c-1.9 4.6-4 9.1-6.1 13.6-0.8 1.7-2.6 2.6-4.4 2.2-9.1-2-18.3-3-27.6-3-32.8 0-65.5 12.5-90.5 37.5-32 32-43.6 76.9-34.5 118.1 0.4 1.8-0.5 3.6-2.2 4.4-4.5 2.1-9 4.2-13.6 6.1-6 2.5-12.1 4.9-18.2 7.1-1.7 0.6-3.7 0-4.7-1.6C597.1 791.6 557.3 768 512 768s-85.1 23.6-107.9 59.1c-1 1.6-2.9 2.2-4.7 1.6-6.1-2.2-12.2-4.5-18.2-7.1-4.6-1.9-9.1-4-13.6-6.1-1.7-0.8-2.6-2.6-2.2-4.4 9-41.2-2.5-86-34.5-118.1-25-25-57.8-37.5-90.5-37.5-9.2 0-18.5 1-27.6 3-1.8 0.4-3.6-0.5-4.4-2.2-2.1-4.5-4.2-9-6.1-13.6-2.5-6-4.9-12.1-7.1-18.2-0.6-1.7 0-3.7 1.6-4.7C232.4 597.1 256 557.3 256 512s-23.6-85.1-59.1-107.9c-1.6-1-2.2-2.9-1.6-4.7 2.2-6.1 4.5-12.2 7.1-18.2 1.9-4.6 4-9.1 6.1-13.6 0.8-1.7 2.6-2.6 4.4-2.2 9.1 2 18.3 3 27.6 3 32.8 0 65.5-12.5 90.5-37.5 32-32 43.6-76.9 34.5-118.1-0.4-1.8 0.5-3.6 2.2-4.4 4.5-2.1 9-4.2 13.6-6.1 6-2.5 12.1-4.9 18.2-7.1 1.7-0.6 3.7 0 4.7 1.6C426.9 232.4 466.7 256 512 256s85.1-23.6 107.9-59.1c1-1.6 2.9-2.2 4.7-1.6 6.1 2.2 12.2 4.5 18.2 7.1 4.6 1.9 9.1 4 13.6 6.1 1.7 0.8 2.6 2.6 2.2 4.4-9 41.2 2.5 86 34.5 118.1 25 25 57.8 37.5 90.5 37.5 9.2 0 18.5-1 27.6-3 1.8-0.4 3.6 0.5 4.4 2.2 2.1 4.5 4.2 9 6.1 13.6 2.5 6 4.9 12.1 7.1 18.2 0.6 1.7 0 3.7-1.6 4.7C791.6 426.9 768 466.7 768 512s23.6 85.1 59.1 107.9c1.6 1 2.2 2.9 1.6 4.7-2.2 6.1-4.5 12.2-7.1 18.2z m24.1-91.3c-8.6-10.9-13.7-24.6-13.7-39.5 0-14.9 5.1-28.6 13.7-39.5 11.7-14.9 29.9-24.5 50.3-24.5 3.8 0 7.5 0.3 11 1 30 5.3 53 31.5 53 63s-22.9 57.8-53 63c-3.6 0.6-7.3 1-11 1-20.4 0-38.6-9.6-50.3-24.5z" p-id="3326" fill="#1A90FF"></path></svg>
