<!--
  -
  - Licensed to the Apache Software Foundation (ASF) under one or more
  - contributor license agreements. See the NOTICE file distributed with this
  - work for additional information regarding copyright ownership. The ASF
  - licenses this file to You under the Apache License, Version 2.0 (the
  - "License"); you may not use this file except in compliance with the License.
  - You may obtain a copy of the License at
  -
  -     http://www.apache.org/licenses/LICENSE-2.0
  -
  - Unless required by applicable law or agreed to in writing, software
  - distributed under the License is distributed on an "AS IS" BASIS, WITHOUT
  - WARRANTIES OR CONDITIONS OF ANY KIND, either express or implied. See the
  - License for the specific language governing permissions and limitations
  - under the License.
  -->

<svg t="1664269932603" class="icon" viewBox="0 0 1024 1024" version="1.1" xmlns="http://www.w3.org/2000/svg" p-id="7315" width="200" height="200"><path d="M885.927617 674.300132V497.646113H540.77122V353.829924h345.157421V123.697006H138.070336v230.132918h345.157421v143.816189H138.070336v176.654019c-49.477779 12.862933-86.288076 57.497414-86.288076 110.950729 0 63.453044 51.598065 115.052133 115.054179 115.052133 63.452021 0 115.050086-51.599089 115.050086-115.052133 0-53.453316-36.810297-98.087796-86.288076-110.950729V555.14455h287.630331v119.154559c-49.491082 12.862933-86.288076 57.497414-86.288076 110.950729 0 63.453044 51.599089 115.052133 115.066459 115.052133 63.425415 0 115.054179-51.599089 115.054179-115.052133 0-53.453316-36.798017-98.087796-86.289099-110.950729V555.14455h287.630331v119.154559c-49.493129 12.862933-86.287053 57.497414-86.287053 110.950729 0 63.453044 51.569413 115.052133 115.05111 115.052133 63.424391 0 115.053156-51.599089 115.053156-115.052133-0.002047-53.453316-36.800064-98.086773-86.29217-110.949706zM195.597426 181.224096h632.804125v115.052132H195.597426V181.224096z m28.764056 604.026765c0 31.712196-25.814894 57.554719-57.526066 57.554719-31.714242 0-57.52709-25.842523-57.52709-57.554719 0-31.714242 25.812847-57.498437 57.52709-57.498437 31.712196-0.001023 57.526066 25.783171 57.526066 57.498437z m345.171747 0c0 31.712196-25.8415 57.554719-57.527089 57.554719-31.724475 0-57.539369-25.842523-57.539369-57.554719 0-31.714242 25.815917-57.498437 57.539369-57.498437 31.68559-0.001023 57.52709 25.783171 57.527089 57.498437z m287.631355 57.554719c-31.741872 0-57.528113-25.842523-57.528113-57.554719 0-31.714242 25.786241-57.498437 57.528113-57.498437 31.68559 0 57.52709 25.784195 57.52709 57.498437 0 31.712196-25.8415 57.554719-57.52709 57.554719z" p-id="7316" fill="#1a90ff"></path></svg>
