<?xml version="1.0" encoding="UTF-8"?>
<!--
  - Licensed to the Apache Software Foundation (ASF) under one or more
  - contributor license agreements. See the NOTICE file distributed with this
  - work for additional information regarding copyright ownership. The ASF
  - licenses this file to You under the Apache License, Version 2.0 (the
  - "License"); you may not use this file except in compliance with the License.
  - You may obtain a copy of the License at
  -
  -     http://www.apache.org/licenses/LICENSE-2.0
  -
  - Unless required by applicable law or agreed to in writing, software
  - distributed under the License is distributed on an "AS IS" BASIS, WITHOUT
  - WARRANTIES OR CONDITIONS OF ANY KIND, either express or implied. See the
  - License for the specific language governing permissions and limitations
  - under the License.
  -->

<svg width="10px" height="6px" viewBox="0 0 10 6" version="1.1" xmlns="http://www.w3.org/2000/svg" xmlns:xlink="http://www.w3.org/1999/xlink">
    <!-- Generator: Sketch 55 (78076) - https://sketchapp.com -->
    <title>Rectangle 2</title>
    <desc>Created with Sketch.</desc>
    <g id="V1.1-浅色模式" stroke="none" stroke-width="1" fill="none" fill-rule="evenodd">
        <g id="10" transform="translate(-25.000000, -142.000000)" fill="#FFFFFF" fill-rule="nonzero">
            <g id="侧边导航栏备份">
                <g id="编组-9" transform="translate(0.000000, 116.000000)">
                    <g transform="translate(18.000000, 0.000000)" id="下拉箭头-默认#999999-01备份">
                        <g transform="translate(12.000000, 29.000000) scale(1, -1) translate(-12.000000, -29.000000) translate(7.000000, 26.000000)">
                            <path d="M9.14644661,0.146446609 C9.34170876,-0.0488155365 9.65829124,-0.0488155365 9.85355339,0.146446609 C10.0488155,0.341708755 10.0488155,0.658291245 9.85355339,0.853553391 L5.35355339,5.35355339 C5.15829124,5.54881554 4.84170876,5.54881554 4.64644661,5.35355339 L0.146446609,0.853553391 C-0.0488155365,0.658291245 -0.0488155365,0.341708755 0.146446609,0.146446609 C0.341708755,-0.0488155365 0.658291245,-0.0488155365 0.853553391,0.146446609 L5,4.29289322 L9.14644661,0.146446609 Z" id="Rectangle-2" transform="translate(5.000000, 2.750000) scale(1, -1) translate(-5.000000, -2.750000) "></path>
                        </g>
                    </g>
                </g>
            </g>
        </g>
    </g>
</svg>