<?xml version="1.0" encoding="UTF-8"?>
<!--
  - Licensed to the Apache Software Foundation (ASF) under one or more
  - contributor license agreements. See the NOTICE file distributed with this
  - work for additional information regarding copyright ownership. The ASF
  - licenses this file to You under the Apache License, Version 2.0 (the
  - "License"); you may not use this file except in compliance with the License.
  - You may obtain a copy of the License at
  -
  -     http://www.apache.org/licenses/LICENSE-2.0
  -
  - Unless required by applicable law or agreed to in writing, software
  - distributed under the License is distributed on an "AS IS" BASIS, WITHOUT
  - WARRANTIES OR CONDITIONS OF ANY KIND, either express or implied. See the
  - License for the specific language governing permissions and limitations
  - under the License.
  -->

<svg width="13px" height="13px" viewBox="0 0 13 13" version="1.1" xmlns="http://www.w3.org/2000/svg" xmlns:xlink="http://www.w3.org/1999/xlink">
    <!-- Generator: Sketch 55 (78076) - https://sketchapp.com -->
    <title>新增</title>
    <desc>Created with Sketch.</desc>
    <g id="V1.1.1" stroke="none" stroke-width="1" fill="none" fill-rule="evenodd">
        <g id="4图展示最小高度" transform="translate(-1203.000000, -252.000000)" fill-rule="nonzero">
            <g id="新增" transform="translate(1201.000000, 251.000000)">
                <rect id="矩形" fill="#000000" opacity="0" x="0" y="0" width="16" height="16"></rect>
                <path d="M7.859375,13.1109375 L3.43125,13.1109375 C2.7703125,13.1109375 2.234375,12.575 2.234375,11.9140625 L2.234375,3.0796875 C2.234375,2.40625 2.7796875,1.8609375 3.453125,1.8609375 L12.6984375,1.8609375 C13.428125,1.8609375 13.91875,2.371875 13.91875,3.134375 L13.91875,3.60625 C13.91875,3.8796875 13.696875,4.1015625 13.425,4.1015625 C13.1515625,4.1015625 12.9296875,3.8796875 12.9296875,3.60625 L12.9296875,3.1328125 C12.9296875,2.85 12.8234375,2.85 12.7,2.85 L3.453125,2.85 C3.3296875,2.85 3.225,2.9546875 3.225,3.0796875 L3.225,11.9125 C3.225,12.0265625 3.31875,12.1203125 3.4328125,12.1203125 L7.85,12.1203125 C8.1203125,12.1203125 8.346875,12.33125 8.3546875,12.6015625 C8.3609375,12.88125 8.1375,13.1109375 7.859375,13.1109375 Z" id="路径" fill="#666666"></path>
                <path d="M14.4578125,10.2984375 L8.925,10.2984375 C8.6515625,10.2984375 8.4296875,10.0765625 8.4296875,9.803125 C8.4296875,9.5296875 8.6515625,9.3078125 8.925,9.3078125 L14.4578125,9.3078125 C14.73125,9.3078125 14.953125,9.5296875 14.953125,9.803125 C14.9515625,10.0765625 14.73125,10.2984375 14.4578125,10.2984375 Z" id="形状" fill="#666666"></path>
                <path d="M11.690625,13.0640625 C11.4171875,13.0640625 11.1953125,12.8421875 11.1953125,12.56875 L11.1953125,7.0375 C11.1953125,6.7640625 11.4171875,6.5421875 11.690625,6.5421875 C11.9640625,6.5421875 12.1859375,6.7640625 12.1859375,7.0375 L12.1859375,12.56875 C12.1859375,12.8421875 11.9640625,13.0640625 11.690625,13.0640625 Z" id="路径" fill="#666666"></path>
            </g>
        </g>
    </g>
</svg>