<?xml version="1.0" encoding="UTF-8"?>
<!--
  - Licensed to the Apache Software Foundation (ASF) under one or more
  - contributor license agreements. See the NOTICE file distributed with this
  - work for additional information regarding copyright ownership. The ASF
  - licenses this file to You under the Apache License, Version 2.0 (the
  - "License"); you may not use this file except in compliance with the License.
  - You may obtain a copy of the License at
  -
  -     http://www.apache.org/licenses/LICENSE-2.0
  -
  - Unless required by applicable law or agreed to in writing, software
  - distributed under the License is distributed on an "AS IS" BASIS, WITHOUT
  - WARRANTIES OR CONDITIONS OF ANY KIND, either express or implied. See the
  - License for the specific language governing permissions and limitations
  - under the License.
  -->

<svg width="14px" height="14px" viewBox="0 0 14 14" version="1.1" xmlns="http://www.w3.org/2000/svg" xmlns:xlink="http://www.w3.org/1999/xlink">
    <!-- Generator: Sketch 55 (78076) - https://sketchapp.com -->
    <title>ic_biaoge_hover</title>
    <desc>Created with Sketch.</desc>
    <g id="ic_biaoge_hover" stroke="none" stroke-width="1" fill="none" fill-rule="evenodd">
        <path d="M3.42324561,1.07692308 C2.6832325,1.07692308 2.08333333,1.67327254 2.08333333,2.40890688 L2.08333333,11.5910931 C2.08333333,12.3267275 2.6832325,12.9230769 3.42324561,12.9230769 L11.5767544,12.9230769 C12.3167675,12.9230769 12.9166667,12.3267275 12.9166667,11.5910931 L12.9166667,2.40890688 C12.9166667,1.67327254 12.3167675,1.07692308 11.5767544,1.07692308 L3.42324561,1.07692308 Z M3.42324561,0 L11.5767544,0 C12.915076,-7.17374877e-16 14,1.07850435 14,2.40890688 L14,11.5910931 C14,12.9214957 12.915076,14 11.5767544,14 L3.42324561,14 C2.08492402,14 1,12.9214957 1,11.5910931 L1,2.40890688 C1,1.07850435 2.08492402,0 3.42324561,0 Z M4.55741281,5 C4.24956222,5 4,4.77614237 4,4.5 C4,4.22385763 4.24956222,4 4.55741281,4 L10.4425872,4 C10.7504378,4 11,4.22385763 11,4.5 C11,4.77614237 10.7504378,5 10.4425872,5 L4.55741281,5 Z M4.55741281,7 C4.24956222,7 4,6.77614237 4,6.5 C4,6.22385763 4.24956222,6 4.55741281,6 L10.4425872,6 C10.7504378,6 11,6.22385763 11,6.5 C11,6.77614237 10.7504378,7 10.4425872,7 L4.55741281,7 Z M4.59313923,10 C4.26555748,10 4,9.77614237 4,9.5 C4,9.22385763 4.26555748,9 4.59313923,9 L8.40686077,9 C8.73444252,9 9,9.22385763 9,9.5 C9,9.77614237 8.73444252,10 8.40686077,10 L4.59313923,10 Z" id="图标-/-M-/-目录" fill="#000000" fill-rule="nonzero"></path>
    </g>
</svg>