<?xml version="1.0" encoding="UTF-8"?>
<!--
  - Licensed to the Apache Software Foundation (ASF) under one or more
  - contributor license agreements. See the NOTICE file distributed with this
  - work for additional information regarding copyright ownership. The ASF
  - licenses this file to You under the Apache License, Version 2.0 (the
  - "License"); you may not use this file except in compliance with the License.
  - You may obtain a copy of the License at
  -
  -     http://www.apache.org/licenses/LICENSE-2.0
  -
  - Unless required by applicable law or agreed to in writing, software
  - distributed under the License is distributed on an "AS IS" BASIS, WITHOUT
  - WARRANTIES OR CONDITIONS OF ANY KIND, either express or implied. See the
  - License for the specific language governing permissions and limitations
  - under the License.
  -->

<svg width="16px" height="16px" viewBox="0 0 16 16" version="1.1" xmlns="http://www.w3.org/2000/svg" xmlns:xlink="http://www.w3.org/1999/xlink">
    <!-- Generator: Sketch 55 (78076) - https://sketchapp.com -->
    <title>ic_close_16</title>
    <desc>Created with Sketch.</desc>
    <g id="ic_close_16" stroke="none" stroke-width="1" fill="none" fill-rule="evenodd">
        <g id="退出全屏" fill="#D8D8D8" opacity="0">
            <rect id="矩形" x="0" y="0" width="16" height="16"></rect>
        </g>
        <g id="删除X-默认-01" transform="translate(3.000000, 3.000000)" fill="#999999" fill-rule="nonzero">
            <path d="M5,4.29289322 L9.14644661,0.146446609 C9.34170876,-0.0488155365 9.65829124,-0.0488155365 9.85355339,0.146446609 C10.0488155,0.341708755 10.0488155,0.658291245 9.85355339,0.853553391 L5.70710678,5 L9.85355339,9.14644661 C10.0488155,9.34170876 10.0488155,9.65829124 9.85355339,9.85355339 C9.65829124,10.0488155 9.34170876,10.0488155 9.14644661,9.85355339 L5,5.70710678 L0.853553391,9.85355339 C0.658291245,10.0488155 0.341708755,10.0488155 0.146446609,9.85355339 C-0.0488155365,9.65829124 -0.0488155365,9.34170876 0.146446609,9.14644661 L4.29289322,5 L0.146446609,0.853553391 C-0.0488155365,0.658291245 -0.0488155365,0.341708755 0.146446609,0.146446609 C0.341708755,-0.0488155365 0.658291245,-0.0488155365 0.853553391,0.146446609 L5,4.29289322 Z" id="Combined-Shape"></path>
        </g>
    </g>
</svg>