<?xml version="1.0" encoding="UTF-8"?>
<!--
  - Licensed to the Apache Software Foundation (ASF) under one or more
  - contributor license agreements. See the NOTICE file distributed with this
  - work for additional information regarding copyright ownership. The ASF
  - licenses this file to You under the Apache License, Version 2.0 (the
  - "License"); you may not use this file except in compliance with the License.
  - You may obtain a copy of the License at
  -
  -     http://www.apache.org/licenses/LICENSE-2.0
  -
  - Unless required by applicable law or agreed to in writing, software
  - distributed under the License is distributed on an "AS IS" BASIS, WITHOUT
  - WARRANTIES OR CONDITIONS OF ANY KIND, either express or implied. See the
  - License for the specific language governing permissions and limitations
  - under the License.
  -->

<svg width="16px" height="16px" viewBox="0 0 16 16" version="1.1" xmlns="http://www.w3.org/2000/svg" xmlns:xlink="http://www.w3.org/1999/xlink">
    <!-- Generator: Sketch 55 (78076) - https://sketchapp.com -->
    <title>ic_fangda_16</title>
    <desc>Created with Sketch.</desc>
    <g id="ic_fangda_16" stroke="none" stroke-width="1" fill="none" fill-rule="evenodd">
        <g id="放大" fill="#666666" fill-rule="nonzero">
            <path d="M12.2757683,11.6540857 L14.1742756,13.5525931 C14.3459485,13.724266 14.3459485,14.0026027 14.1742756,14.1742756 C14.0026027,14.3459485 13.724266,14.3459485 13.5525931,14.1742756 L11.6540857,12.2757683 C10.6245375,13.1625086 9.28436749,13.6985859 7.8189899,13.6985859 C4.57177872,13.6985859 1.93939394,11.0662011 1.93939394,7.8189899 C1.93939394,4.57177872 4.57177872,1.93939394 7.8189899,1.93939394 C11.0662011,1.93939394 13.6985859,4.57177872 13.6985859,7.8189899 C13.6985859,9.28436749 13.1625086,10.6245375 12.2757683,11.6540857 Z M7.8189899,12.8193939 C10.5806368,12.8193939 12.8193939,10.5806368 12.8193939,7.8189899 C12.8193939,5.057343 10.5806368,2.81858586 7.8189899,2.81858586 C5.057343,2.81858586 2.81858586,5.057343 2.81858586,7.8189899 C2.81858586,10.5806368 5.057343,12.8193939 7.8189899,12.8193939 Z" id="图标-/-S-/-搜索-/-66"></path>
            <path d="M5.93939394,8.27272727 C5.67161952,8.27272727 5.45454545,8.04886965 5.45454545,7.77272727 C5.45454545,7.4965849 5.67161952,7.27272727 5.93939394,7.27272727 L10.3030303,7.27272727 C10.5708047,7.27272727 10.7878788,7.4965849 10.7878788,7.77272727 C10.7878788,8.04886965 10.5708047,8.27272727 10.3030303,8.27272727 L5.93939394,8.27272727 Z" id="Line"></path>
            <path d="M7.63636364,5.57575758 C7.63636364,5.30798315 7.86022126,5.09090909 8.13636364,5.09090909 C8.41250601,5.09090909 8.63636364,5.30798315 8.63636364,5.57575758 L8.63636364,9.93939394 C8.63636364,10.2071684 8.41250601,10.4242424 8.13636364,10.4242424 C7.86022126,10.4242424 7.63636364,10.2071684 7.63636364,9.93939394 L7.63636364,5.57575758 Z" id="Line-Copy"></path>
        </g>
    </g>
</svg>