<?xml version="1.0" encoding="UTF-8"?>
<!--
  - Licensed to the Apache Software Foundation (ASF) under one or more
  - contributor license agreements. See the NOTICE file distributed with this
  - work for additional information regarding copyright ownership. The ASF
  - licenses this file to You under the Apache License, Version 2.0 (the
  - "License"); you may not use this file except in compliance with the License.
  - You may obtain a copy of the License at
  -
  -     http://www.apache.org/licenses/LICENSE-2.0
  -
  - Unless required by applicable law or agreed to in writing, software
  - distributed under the License is distributed on an "AS IS" BASIS, WITHOUT
  - WARRANTIES OR CONDITIONS OF ANY KIND, either express or implied. See the
  - License for the specific language governing permissions and limitations
  - under the License.
  -->

<svg width="42px" height="40px" viewBox="0 0 42 40" version="1.1" xmlns="http://www.w3.org/2000/svg" xmlns:xlink="http://www.w3.org/1999/xlink">
    <!-- Generator: Sketch 55 (78076) - https://sketchapp.com -->
    <title>ic_jiance_fail备份 2</title>
    <desc>Created with Sketch.</desc>
    <g id="V1.1视觉" stroke="none" stroke-width="1" fill="none" fill-rule="evenodd">
        <g id="5loading资源" transform="translate(-1178.000000, -459.000000)">
            <g id="card-2" transform="translate(216.000000, 231.000000)">
                <g id="编组-2" transform="translate(532.000000, 172.000000)">
                    <g id="ic_jiance_fail备份-2" transform="translate(374.000000, 0.000000)">
                        <g id="Group">
                            <polygon id="Path" points="1.10705433e-15 1.66058149e-15 144 7.46676642e-16 144 144 4.42821732e-15 144"></polygon>
                        </g>
                        <g id="product" transform="translate(22.000000, 20.000000)" stroke-linecap="round" stroke-width="4">
                            <g id="Group-43">
                                <g id="Group-57" transform="translate(54.213203, 55.506097) scale(1, -1) rotate(45.000000) translate(-54.213203, -55.506097) translate(34.713203, 39.006097)">
                                    <g id="Group-54" transform="translate(0.000000, 0.000000)">
                                        <path d="M23.4976541,31.0660551 C29.0313327,28.548323 32.8786797,22.9709797 32.8786797,16.4950403 C32.8786797,10.2285493 29.2761742,4.80346851 24.0292088,2.17784341 M10.5797935,2.218522 C4.87494889,4.66415482 0.878679656,10.3308602 0.878679656,16.9309443 C0.878679656,23.6398719 5.00784258,29.3843819 10.8634171,31.7617229" id="形状" stroke="#B9D6FF"></path>
                                        <path d="M29.1479783,29.4668551 C34.6816569,26.949123 38.5290038,21.3717797 38.5290038,14.8958403 C38.5290038,8.62934932 34.9264984,3.20426853 29.679533,0.578643432 M16.2301176,0.61932203 C10.5252731,3.06495485 6.52900384,8.73166024 6.52900384,15.3317443 C6.52900384,22.040672 10.6581668,27.7851819 16.5137413,30.1625229" id="形状备份" stroke="#3388FF"></path>
                                    </g>
                                </g>
                            </g>
                        </g>
                    </g>
                </g>
            </g>
        </g>
    </g>
</svg>