<?xml version="1.0" encoding="UTF-8"?>
<!--
  - Licensed to the Apache Software Foundation (ASF) under one or more
  - contributor license agreements. See the NOTICE file distributed with this
  - work for additional information regarding copyright ownership. The ASF
  - licenses this file to You under the Apache License, Version 2.0 (the
  - "License"); you may not use this file except in compliance with the License.
  - You may obtain a copy of the License at
  -
  -     http://www.apache.org/licenses/LICENSE-2.0
  -
  - Unless required by applicable law or agreed to in writing, software
  - distributed under the License is distributed on an "AS IS" BASIS, WITHOUT
  - WARRANTIES OR CONDITIONS OF ANY KIND, either express or implied. See the
  - License for the specific language governing permissions and limitations
  - under the License.
  -->

<svg width="48px" height="48px" viewBox="0 0 48 48" version="1.1" xmlns="http://www.w3.org/2000/svg" xmlns:xlink="http://www.w3.org/1999/xlink">
    <!-- Generator: Sketch 55 (78076) - https://sketchapp.com -->
    <title>通过-M01</title>
    <desc>Created with Sketch.</desc>
    <g id="V1.2" stroke="none" stroke-width="1" fill="none" fill-rule="evenodd">
        <g id="列表展示-复用顶点类型-完成" transform="translate(-779.000000, -519.000000)" fill="#39BF45">
            <g id="card备份-6" transform="translate(256.000000, 318.000000)">
                <g id="btn备份-3" transform="translate(521.000000, 201.000000)">
                    <g id="编组-6" transform="translate(2.000000, 0.000000)">
                        <g id="通过-M01">
                            <g id="Success-circle" transform="translate(4.000000, 0.000000)">
                                <path d="M20,48 C6.745166,48 -4,37.254834 -4,24 C-4,10.745166 6.745166,0 20,0 C33.254834,0 44,10.745166 44,24 C44,37.254834 33.254834,48 20,48 Z M20,44 C31.045695,44 40,35.045695 40,24 C40,12.954305 31.045695,4 20,4 C8.954305,4 0,12.954305 0,24 C0,35.045695 8.954305,44 20,44 Z M16,29.1715729 L30.5857864,14.5857864 C31.366835,13.8047379 32.633165,13.8047379 33.4142136,14.5857864 C34.1952621,15.366835 34.1952621,16.633165 33.4142136,17.4142136 L17.4142136,33.4142136 C16.633165,34.1952621 15.366835,34.1952621 14.5857864,33.4142136 L6.58578644,25.4142136 C5.80473785,24.633165 5.80473785,23.366835 6.58578644,22.5857864 C7.36683502,21.8047379 8.63316498,21.8047379 9.41421356,22.5857864 L16,29.1715729 Z" id="形状结合" fill-rule="nonzero"></path>
                            </g>
                        </g>
                    </g>
                </g>
            </g>
        </g>
    </g>
</svg>