<?xml version="1.0" encoding="UTF-8"?>
<!--
  - Licensed to the Apache Software Foundation (ASF) under one or more
  - contributor license agreements. See the NOTICE file distributed with this
  - work for additional information regarding copyright ownership. The ASF
  - licenses this file to You under the Apache License, Version 2.0 (the
  - "License"); you may not use this file except in compliance with the License.
  - You may obtain a copy of the License at
  -
  -     http://www.apache.org/licenses/LICENSE-2.0
  -
  - Unless required by applicable law or agreed to in writing, software
  - distributed under the License is distributed on an "AS IS" BASIS, WITHOUT
  - WARRANTIES OR CONDITIONS OF ANY KIND, either express or implied. See the
  - License for the specific language governing permissions and limitations
  - under the License.
  -->

<svg width="14px" height="14px" viewBox="0 0 14 14" version="1.1" xmlns="http://www.w3.org/2000/svg" xmlns:xlink="http://www.w3.org/1999/xlink">
    <!-- Generator: Sketch 55 (78076) - https://sketchapp.com -->
    <title>问号-默认-M01</title>
    <desc>Created with Sketch.</desc>
    <g id="V1.2" stroke="none" stroke-width="1" fill="none" fill-rule="evenodd">
        <g id="列表展示-创建顶点类型" transform="translate(-631.000000, -645.000000)" fill="#999999">
            <g id="编组-4" transform="translate(552.000000, 348.000000)">
                <g id="编组" transform="translate(10.000000, 292.000000)">
                    <g id="问号-默认-M01" transform="translate(69.000000, 5.000000)">
                        <g id="question-circle">
                            <path d="M7,14 C3.13400675,14 0,10.8659932 0,7 C0,3.13400675 3.13400675,0 7,0 C10.8659932,0 14,3.13400675 14,7 C14,10.8659932 10.8659932,14 7,14 Z M7,12.8333333 C10.221661,12.8333333 12.8333333,10.221661 12.8333333,7 C12.8333333,3.77833896 10.221661,1.16666667 7,1.16666667 C3.77833896,1.16666667 1.16666667,3.77833896 1.16666667,7 C1.16666667,10.221661 3.77833896,12.8333333 7,12.8333333 Z M7.58333333,7.67322097 L7.58333333,8.84399035 C7.58333333,9.16615646 7.3221661,9.42732369 7,9.42732369 C6.6778339,9.42732369 6.41666667,9.16615646 6.41666667,8.84399035 L6.41666667,7.15329325 C6.41666667,6.83112714 6.6778339,6.56995991 7,6.56995991 C7.80982936,6.56995991 8.45833333,5.94343204 8.45833333,5.18081329 C8.45833333,4.41819454 7.80982936,3.79166667 7,3.79166667 C6.19017064,3.79166667 5.54166667,4.41819454 5.54166667,5.18081329 C5.54166667,5.50297939 5.28049944,5.76414662 4.95833333,5.76414662 C4.63616723,5.76414662 4.375,5.50297939 4.375,5.18081329 C4.375,3.76469087 5.55466666,2.625 7,2.625 C8.44533334,2.625 9.625,3.76469087 9.625,5.18081329 C9.625,6.40062364 8.74972941,7.41533163 7.58333333,7.67322097 Z M6.41666667,10.5 C6.41666667,10.1778339 6.6778339,9.91666667 7,9.91666667 C7.3221661,9.91666667 7.58333333,10.1778339 7.58333333,10.5 L7.58333333,10.7916667 C7.58333333,11.1138328 7.3221661,11.375 7,11.375 C6.6778339,11.375 6.41666667,11.1138328 6.41666667,10.7916667 L6.41666667,10.5 Z" id="形状结合" fill-rule="nonzero"></path>
                        </g>
                    </g>
                </g>
            </g>
        </g>
    </g>
</svg>