<?xml version="1.0" encoding="UTF-8"?>
<!--
  - Licensed to the Apache Software Foundation (ASF) under one or more
  - contributor license agreements. See the NOTICE file distributed with this
  - work for additional information regarding copyright ownership. The ASF
  - licenses this file to You under the Apache License, Version 2.0 (the
  - "License"); you may not use this file except in compliance with the License.
  - You may obtain a copy of the License at
  -
  -     http://www.apache.org/licenses/LICENSE-2.0
  -
  - Unless required by applicable law or agreed to in writing, software
  - distributed under the License is distributed on an "AS IS" BASIS, WITHOUT
  - WARRANTIES OR CONDITIONS OF ANY KIND, either express or implied. See the
  - License for the specific language governing permissions and limitations
  - under the License.
  -->

<svg width="32px" height="32px" viewBox="0 0 32 32" version="1.1" xmlns="http://www.w3.org/2000/svg" xmlns:xlink="http://www.w3.org/1999/xlink">
    <!-- Generator: Sketch 55 (78076) - https://sketchapp.com -->
    <title>ic_shuju_normal</title>
    <desc>Created with Sketch.</desc>
    <g id="ic_shuju_normal" stroke="none" stroke-width="1" fill="none" fill-rule="evenodd">
        <g id="Group-3">
            <polygon id="selected-copy-4" fill="#FFFFFF" opacity="0.08" points="0 0 32 0 32 32 0 32 0 20.4270833 0 15.7847222"></polygon>
            <rect id="Rectangle-11" x="7" y="7" width="18" height="18"></rect>
            <g id="数据分析" transform="translate(7.000000, 9.000000)" fill="#666666" fill-rule="nonzero">
                <path d="M16.5755396,14 L1.42076053,14 C0.637447893,14 -1.02318154e-12,13.5041053 -1.02318154e-12,12.8947368 L-1.02318154e-12,1.10526316 C-1.02318154e-12,0.495894737 0.637447893,0 1.42076053,0 L16.5755396,0 C17.3588522,0 17.9963001,0.495894737 17.9963001,1.10526316 L17.9963001,12.8947368 C17.9963001,13.5041053 17.3588522,14 16.5755396,14 Z M1,1.35294118 L1,12.6470588 C1,12.8418824 1.21082353,13 1.47058824,13 L16.5294118,13 C16.7891765,13 17,12.8418824 17,12.6470588 L17,1.35294118 C17,1.15811765 16.7891765,1 16.5294118,1 L1.47058824,1 C1.21082353,1 1,1.15811765 1,1.35294118 Z" id="Shape"></path>
                <path d="M14.5133049,8.25986322 C14.4017976,8.2605746 14.2954813,8.21280928 14.2219608,8.12896947 L12.2458876,5.971334 C12.1500971,5.86649251 12.1175154,5.7185114 12.1604156,5.58313371 C12.2033158,5.44775602 12.3151803,5.34554886 12.4538709,5.31501266 C12.5925615,5.28447647 12.7370078,5.33025042 12.8327982,5.43509192 L14.8088714,7.59272738 C14.9443711,7.75915557 14.933472,8.00075231 14.7835371,8.15430375 C14.7104725,8.22306892 14.6136345,8.26089625 14.5133049,8.25986322 L14.5133049,8.25986322 Z M7.96439567,9.47168588 C7.86321135,9.4729683 7.76578593,9.43338922 7.69416345,9.36190403 C7.55164034,9.20184024 7.55164034,8.96039146 7.69416345,8.80032766 L10.8060565,5.54065138 C10.9041097,5.43807266 11.0494396,5.39559676 11.187302,5.42922396 C11.3251644,5.46285115 11.4346146,5.56747266 11.4744238,5.70367858 C11.5142329,5.83988449 11.4783532,5.9869819 11.3803,6.08956062 L8.2557398,9.3492369 C8.17813724,9.42622808 8.07369962,9.47012215 7.96439567,9.47168588 L7.96439567,9.47168588 Z M6.54145408,8.94811093 C6.41711315,8.94911124 6.29964605,8.8911608 6.22477569,8.79188292 L3.93202409,5.72221368 C3.83879159,5.60964376 3.81497477,5.45494114 3.87003182,5.31954171 C3.92508887,5.18414228 4.05010873,5.08996065 4.19544318,5.07439848 C4.34077764,5.05883631 4.48290408,5.12441236 4.56538089,5.24508489 L6.85813247,8.31053174 C6.9507374,8.42987653 6.96667369,8.59176114 6.89911801,8.72687251 C6.83156233,8.86198388 6.69249287,8.94636561 6.54145408,8.94388854 L6.54145408,8.94811093 Z" id="形状"></path>
                <path d="M3.59845619,6.09800537 C2.99522163,6.09800294 2.45146615,5.7343958 2.22101471,5.1769157 C1.99056328,4.61943559 2.11885991,3.97801518 2.54601577,3.5520694 C2.97317162,3.12612362 3.61495342,2.99964713 4.17177752,3.23167914 C4.72860162,3.46371115 5.09066473,4.00849596 5.08895584,4.61172809 C5.08662855,5.4332589 4.41999029,6.09800866 3.59845619,6.09800537 L3.59845619,6.09800537 Z M3.59845619,3.91503563 C3.21368357,3.91503565 2.90176374,4.22695549 2.90176375,4.61172811 C2.90176376,4.99650073 3.2136836,5.30842056 3.59845622,5.30842055 C3.98322884,5.30842055 4.29514867,4.99650071 4.29514867,4.61172809 C4.29628092,4.42660898 4.22324325,4.2487439 4.09234182,4.11784247 C3.96144038,3.98694104 3.7835753,3.91390337 3.59845619,3.91503563 Z M6.98480383,11.0381883 C6.38156928,11.0381859 5.8378138,10.6745788 5.60736236,10.1170987 C5.37691093,9.55961856 5.50520756,8.91819814 5.93236342,8.49225236 C6.35951927,8.06630658 7.00130107,7.9398301 7.55812517,8.17186211 C8.11494927,8.40389412 8.47701237,8.94867892 8.47530349,9.55191106 C8.4729762,10.3734419 7.80633794,11.0381916 6.98480383,11.0381883 L6.98480383,11.0381883 Z M6.98480383,8.8552186 C6.60003122,8.85521861 6.28811139,9.16713846 6.2881114,9.55191107 C6.28811141,9.93668369 6.60003125,10.2486035 6.98480387,10.2486035 C7.36957648,10.2486035 7.68149632,9.93668367 7.68149632,9.55191106 C7.68262857,9.36679194 7.6095909,9.18892686 7.47868947,9.05802543 C7.34778803,8.927124 7.16992295,8.85408634 6.98480383,8.8552186 L6.98480383,8.8552186 Z M11.7434245,6.4442404 C11.1401924,6.44594928 10.5954076,6.08388617 10.3633756,5.52706207 C10.1313436,4.97023797 10.2578201,4.32845617 10.6837658,3.90130032 C11.1097116,3.47414446 11.751132,3.34584784 12.3086121,3.57629928 C12.8660922,3.80675072 13.2296994,4.35050621 13.2297018,4.95374077 C13.2297051,5.77527486 12.5649553,6.44191311 11.7434245,6.4442404 L11.7434245,6.4442404 Z M11.7434245,4.26127067 C11.4608775,4.2595634 11.2052796,4.42867808 11.0963634,4.68939436 C10.9874472,4.95011063 11.0467844,5.25079184 11.2465789,5.45058637 C11.4463735,5.65038091 11.7470547,5.70971808 12.0077709,5.60080189 C12.2684872,5.4918857 12.4376019,5.23628776 12.4358946,4.95374077 C12.4335895,4.57225897 12.1249063,4.26357575 11.7434245,4.26127067 L11.7434245,4.26127067 Z M15.0537694,10.3077168 C14.4509185,10.3077168 13.9074282,9.94456827 13.6767272,9.38760672 C13.4460262,8.83064517 13.573547,8.18955469 13.9998269,7.76327477 C14.4261068,7.33699485 15.0671973,7.20947402 15.6241589,7.44017505 C16.1811204,7.67087608 16.544269,8.21436634 16.544269,8.81721718 C16.544269,9.6403974 15.8769496,10.3077168 15.0537694,10.3077168 Z M15.0537694,8.12474711 C14.7698367,8.1161436 14.509114,8.28078395 14.3948381,8.54084705 C14.2805622,8.80091015 14.3356205,9.10430973 14.5339885,9.30763691 C14.7323565,9.5109641 15.0343044,9.57349585 15.2971094,9.46567509 C15.5599144,9.35785434 15.7309412,9.10127575 15.7293499,8.81721718 C15.727249,8.44218037 15.42864,8.13610614 15.0537694,8.12474711 Z" id="形状"></path>
            </g>
        </g>
    </g>
</svg>