<?xml version="1.0" encoding="UTF-8"?>
<!--
  - Licensed to the Apache Software Foundation (ASF) under one or more
  - contributor license agreements. See the NOTICE file distributed with this
  - work for additional information regarding copyright ownership. The ASF
  - licenses this file to You under the Apache License, Version 2.0 (the
  - "License"); you may not use this file except in compliance with the License.
  - You may obtain a copy of the License at
  -
  -     http://www.apache.org/licenses/LICENSE-2.0
  -
  - Unless required by applicable law or agreed to in writing, software
  - distributed under the License is distributed on an "AS IS" BASIS, WITHOUT
  - WARRANTIES OR CONDITIONS OF ANY KIND, either express or implied. See the
  - License for the specific language governing permissions and limitations
  - under the License.
  -->

<svg width="16px" height="16px" viewBox="0 0 16 16" version="1.1" xmlns="http://www.w3.org/2000/svg" xmlns:xlink="http://www.w3.org/1999/xlink">
    <!-- Generator: Sketch 55 (78076) - https://sketchapp.com -->
    <title>ic_suoxiao_16</title>
    <desc>Created with Sketch.</desc>
    <g id="ic_suoxiao_16" stroke="none" stroke-width="1" fill="none" fill-rule="evenodd">
        <g id="放大" fill="#666666" fill-rule="nonzero">
            <path d="M12.3363744,11.7146918 L14.2348817,13.6131991 C14.4065546,13.784872 14.4065546,14.0632088 14.2348817,14.2348817 C14.0632088,14.4065546 13.784872,14.4065546 13.6131991,14.2348817 L11.7146918,12.3363744 C10.6851436,13.2231146 9.34497355,13.7591919 7.87959596,13.7591919 C4.63238478,13.7591919 2,11.1268071 2,7.87959596 C2,4.63238478 4.63238478,2 7.87959596,2 C11.1268071,2 13.7591919,4.63238478 13.7591919,7.87959596 C13.7591919,9.34497355 13.2231146,10.6851436 12.3363744,11.7146918 Z M7.87959596,12.88 C10.6412429,12.88 12.88,10.6412429 12.88,7.87959596 C12.88,5.11794907 10.6412429,2.87919192 7.87959596,2.87919192 C5.11794907,2.87919192 2.87919192,5.11794907 2.87919192,7.87959596 C2.87919192,10.6412429 5.11794907,12.88 7.87959596,12.88 Z" id="图标-/-S-/-搜索-/-66"></path>
            <path d="M5.48484848,8 C5.21707406,8 5,7.77614237 5,7.5 C5,7.22385763 5.21707406,7 5.48484848,7 L9.84848485,7 C10.1162593,7 10.3333333,7.22385763 10.3333333,7.5 C10.3333333,7.77614237 10.1162593,8 9.84848485,8 L5.48484848,8 Z" id="Line"></path>
        </g>
    </g>
</svg>