<?xml version="1.0" encoding="UTF-8"?>
<!--
  - Licensed to the Apache Software Foundation (ASF) under one or more
  - contributor license agreements. See the NOTICE file distributed with this
  - work for additional information regarding copyright ownership. The ASF
  - licenses this file to You under the Apache License, Version 2.0 (the
  - "License"); you may not use this file except in compliance with the License.
  - You may obtain a copy of the License at
  -
  -     http://www.apache.org/licenses/LICENSE-2.0
  -
  - Unless required by applicable law or agreed to in writing, software
  - distributed under the License is distributed on an "AS IS" BASIS, WITHOUT
  - WARRANTIES OR CONDITIONS OF ANY KIND, either express or implied. See the
  - License for the specific language governing permissions and limitations
  - under the License.
  -->

<svg width="14px" height="14px" viewBox="0 0 14 14" version="1.1" xmlns="http://www.w3.org/2000/svg" xmlns:xlink="http://www.w3.org/1999/xlink">
    <!-- Generator: Sketch 55 (78076) - https://sketchapp.com -->
    <title>bullseye</title>
    <desc>Created with Sketch.</desc>
    <g id="V1.2" stroke="none" stroke-width="1" fill="none" fill-rule="evenodd">
        <g id="图展示" transform="translate(-407.000000, -232.000000)" fill="#FFFFFF" fill-rule="nonzero">
            <g id="编组-2" transform="translate(285.000000, 223.000000)">
                <g id="1-默认">
                    <g id="bullseye" transform="translate(122.000000, 9.000000)">
                        <path d="M1.1031595,2.2610973 L1.1031595,11.7389027 C1.1031595,12.352643 1.58189422,12.8511327 2.17191476,12.8511327 L11.8280852,12.8511327 C12.4182641,12.8511327 12.8968405,12.3530142 12.8968405,11.7389027 L12.8968405,2.2610973 C12.8968405,1.64735704 12.4181058,1.14886731 11.8280852,1.14886731 L2.17191476,1.14886731 C1.5817359,1.14886731 1.1031595,1.64698582 1.1031595,2.2610973 Z M0,2.2610973 C0,1.01233573 0.972619941,0 2.17191476,0 L11.8280852,0 C13.027324,0 14,1.01281352 14,2.2610973 L14,11.7389027 C14,12.9876643 13.0273801,14 11.8280852,14 L2.17191476,14 C0.972676017,14 0,12.9871865 0,11.7389027 L0,2.2610973 Z" id="图标-/-Y/-有图模式-/-66"></path>
                        <path d="M10.4375,8.875 C10.125,8.875 9.8125,9.00000001 9.5625,9.125 L9.0625,8.625 C9.3125,8.25 9.49999999,7.81249999 9.50000001,7.3125 C9.50000001,6.62499999 9.18750001,5.99999999 8.6875,5.62499999 L8.93750001,5.125 L9.1875,5.125 C10.0625,5.125 10.75,4.4375 10.75,3.5625 C10.75,2.68749999 10.0625,2 9.1875,2 C8.31249999,2 7.625,2.6875 7.625,3.5625 C7.625,4.125 7.9375,4.5625 8.3125,4.875 L8.125,5.3125 C7.875,5.1875 7.625,5.125 7.3125,5.125 C6.125,5.125 5.125,6.125 5.125,7.3125 C5.125,7.62499999 5.1875,7.875 5.3125,8.125 L4.875,8.3125 C4.56250001,7.93750001 4.125,7.625 3.5625,7.625 C2.6875,7.625 2,8.3125 2,9.1875 C2,10.0625 2.6875,10.75 3.5625,10.75 C4.43749999,10.75 5.125,10.0625 5.125,9.1875 L5.125,8.93750001 L5.62499999,8.6875 C5.99999999,9.1875 6.62499999,9.50000001 7.3125,9.50000001 C7.81249999,9.50000001 8.24999999,9.3125 8.625,9.0625 L9.125,9.5625 C9,9.8125 8.87499999,10.125 8.875,10.4375 C8.875,11.3125 9.56250001,12 10.4375,12 C11.3125,12 12,11.3125 12,10.4375 C12,9.56250001 11.3125,8.875 10.4375,8.875 L10.4375,8.875 Z M9.1875,2.625 C9.6875,2.625 10.125,3.0625 10.125,3.5625 C10.125,4.0625 9.6875,4.49999999 9.1875,4.49999999 C8.6875,4.49999999 8.25,4.0625 8.25,3.5625 C8.25,3.0625 8.6875,2.625 9.1875,2.625 L9.1875,2.625 Z M3.5625,10.125 C3.0625,10.125 2.625,9.6875 2.625,9.1875 C2.625,8.6875 3.0625,8.25 3.5625,8.25 C4.0625,8.25 4.49999999,8.6875 4.49999999,9.1875 C4.49999999,9.6875 4.0625,10.125 3.5625,10.125 L3.5625,10.125 Z M5.75,7.3125 C5.75,6.4375 6.4375,5.75 7.3125,5.75 C8.18749999,5.75 8.875,6.4375 8.875,7.3125 C8.875,8.18749999 8.1875,8.875 7.3125,8.875 C6.43749999,8.875 5.75,8.1875 5.75,7.3125 Z M10.4375,11.4375 C9.90416667,11.4375 9.4375,10.9708333 9.4375,10.4375 C9.4375,9.90416667 9.90416667,9.4375 10.4375,9.4375 C10.9708333,9.4375 11.4375,9.90416667 11.4375,10.4375 C11.4375,10.9708333 10.9708333,11.4375 10.4375,11.4375 Z" id="形状"></path>
                    </g>
                </g>
            </g>
        </g>
    </g>
</svg>