<?xml version="1.0" encoding="UTF-8"?>
<!--
  - Licensed to the Apache Software Foundation (ASF) under one or more
  - contributor license agreements. See the NOTICE file distributed with this
  - work for additional information regarding copyright ownership. The ASF
  - licenses this file to You under the Apache License, Version 2.0 (the
  - "License"); you may not use this file except in compliance with the License.
  - You may obtain a copy of the License at
  -
  -     http://www.apache.org/licenses/LICENSE-2.0
  -
  - Unless required by applicable law or agreed to in writing, software
  - distributed under the License is distributed on an "AS IS" BASIS, WITHOUT
  - WARRANTIES OR CONDITIONS OF ANY KIND, either express or implied. See the
  - License for the specific language governing permissions and limitations
  - under the License.
  -->

<svg width="14px" height="10px" viewBox="0 0 14 10" version="1.1" xmlns="http://www.w3.org/2000/svg" xmlns:xlink="http://www.w3.org/1999/xlink">
    <!-- Generator: Sketch 55 (78076) - https://sketchapp.com -->
    <title>Group 2</title>
    <desc>Created with Sketch.</desc>
    <g id="页面1" stroke="none" stroke-width="1" fill="none" fill-rule="evenodd">
        <g id="10" transform="translate(-22.000000, -80.000000)">
            <g id="侧边导航栏备份">
                <g id="编组-10" transform="translate(0.000000, 68.000000)">
                    <g id="Group-2" transform="translate(14.000000, 0.000000)">
                        <polygon id="selected-copy-3" opacity="0.149999991" points="0 0 32 0 32 32 0 32 0 20.4270833 0 15.7847222"></polygon>
                        <path d="M9.91421356,16.4497475 L20.9497475,16.4497475 C21.2258898,16.4497475 21.4497475,16.6736051 21.4497475,16.9497475 C21.4497475,17.2258898 21.2258898,17.4497475 20.9497475,17.4497475 L9.91421356,17.4497475 L13.3033009,20.8388348 C13.498563,21.0340969 13.498563,21.3506794 13.3033009,21.5459415 C13.1080387,21.7412037 12.7914562,21.7412037 12.5961941,21.5459415 L8.35355339,17.3033009 C8.25592232,17.2056698 8.20710678,17.0777086 8.20710678,16.9497475 C8.20710678,16.8217863 8.25592232,16.6938252 8.35355339,16.5961941 L12.5961941,12.3535534 C12.7914562,12.1582912 13.1080387,12.1582912 13.3033009,12.3535534 C13.498563,12.5488155 13.498563,12.865398 13.3033009,13.0606602 L9.91421356,16.4497475 Z M9.91421356,16.4497475 L9.06066017,17.3033009 C9.15507924,17.2088818 9.20710678,17.0805824 9.20710678,16.9497475 C9.20710678,16.8189126 9.15507924,16.6906131 9.06066017,16.5961941 L9.91421356,17.4497475 L8.5,17.4497475 L8.30275093,16.9497475 L8.5,16.4497475 L9.91421356,16.4497475 Z" id="形状结合" fill="#666666" fill-rule="nonzero"></path>
                    </g>
                </g>
            </g>
        </g>
    </g>
</svg>