<?xml version="1.0" encoding="UTF-8"?>
<!--
  - Licensed to the Apache Software Foundation (ASF) under one or more
  - contributor license agreements. See the NOTICE file distributed with this
  - work for additional information regarding copyright ownership. The ASF
  - licenses this file to You under the Apache License, Version 2.0 (the
  - "License"); you may not use this file except in compliance with the License.
  - You may obtain a copy of the License at
  -
  -     http://www.apache.org/licenses/LICENSE-2.0
  -
  - Unless required by applicable law or agreed to in writing, software
  - distributed under the License is distributed on an "AS IS" BASIS, WITHOUT
  - WARRANTIES OR CONDITIONS OF ANY KIND, either express or implied. See the
  - License for the specific language governing permissions and limitations
  - under the License.
  -->

<svg width="16px" height="14px" viewBox="0 0 16 14" version="1.1" xmlns="http://www.w3.org/2000/svg" xmlns:xlink="http://www.w3.org/1999/xlink">
    <!-- Generator: Sketch 55 (78076) - https://sketchapp.com -->
    <title>ic_yingshe_16</title>
    <desc>Created with Sketch.</desc>
    <g id="V1.3.0交互" stroke="none" stroke-width="1" fill="none" fill-rule="evenodd">
        <g id="10" transform="translate(-1902.000000, -987.000000)" fill="#666666" fill-rule="nonzero">
            <g id="ic_yingshe_16" transform="translate(1902.000000, 986.000000)">
                <path d="M9.59063415,10.0167805 L7.99219512,10.0167805 C7.67219512,10.0167805 7.45990244,9.80292683 7.45990244,9.4844878 C7.45990244,9.1644878 7.6737561,8.95219512 7.99219512,8.95219512 L9.59063415,8.95219512 L9.59063415,2.87687805 L1.06614634,2.87687805 L1.06614634,9.00370732 L3.73073171,9.00370732 C4.05073171,9.00370732 4.26302439,9.21756098 4.26302439,9.536 C4.26302439,9.856 4.04917073,10.0682927 3.73073171,10.0682927 L1.06614634,10.0682927 C0.479219512,10.0698537 6.57252031e-14,9.59063415 6.57252031e-14,9.05834146 L6.57252031e-14,2.87687805 C6.57252031e-14,2.2915122 0.479219512,1.86380488 1.06614634,1.86380488 L9.59063415,1.86380488 C10.176,1.86380488 10.6567805,2.34302439 10.6567805,2.87687805 L10.6567805,9.00370732 C10.6567805,9.59063415 10.176,10.0167805 9.59063415,10.0167805 L9.59063415,10.0167805 Z" id="路径"></path>
                <path d="M14.9182439,14.1190244 L6.3937561,14.1190244 C5.80839024,14.1190244 5.32760976,13.6398049 5.32760976,13.1059512 L5.32760976,6.97912195 C5.32760976,6.3937561 5.80682927,5.96604878 6.3937561,5.96604878 L7.99219512,5.96604878 C8.31219512,5.96604878 8.5244878,6.17990244 8.5244878,6.49834146 C8.5244878,6.76526829 8.31063415,7.03063415 7.99219512,7.03063415 L6.3937561,7.03063415 L6.3937561,13.1574634 L14.9182439,13.1574634 L14.9182439,6.97912195 L12.2552195,6.97912195 C11.9352195,6.97912195 11.7229268,6.76526829 11.7229268,6.44682927 C11.7229268,6.17990244 11.9367805,5.91453659 12.2552195,5.91453659 L14.9198049,5.91453659 C15.5051707,5.91453659 15.9859512,6.3937561 15.9859512,6.92760976 L15.9859512,13.054439 C15.9843902,13.6398049 15.5051707,14.1190244 14.9182439,14.1190244 L14.9182439,14.1190244 Z" id="路径"></path>
            </g>
        </g>
    </g>
</svg>