<?xml version="1.0" encoding="UTF-8"?>
<!--
  - Licensed to the Apache Software Foundation (ASF) under one or more
  - contributor license agreements. See the NOTICE file distributed with this
  - work for additional information regarding copyright ownership. The ASF
  - licenses this file to You under the Apache License, Version 2.0 (the
  - "License"); you may not use this file except in compliance with the License.
  - You may obtain a copy of the License at
  -
  -     http://www.apache.org/licenses/LICENSE-2.0
  -
  - Unless required by applicable law or agreed to in writing, software
  - distributed under the License is distributed on an "AS IS" BASIS, WITHOUT
  - WARRANTIES OR CONDITIONS OF ANY KIND, either express or implied. See the
  - License for the specific language governing permissions and limitations
  - under the License.
  -->

<svg width="32px" height="32px" viewBox="0 0 32 32" version="1.1" xmlns="http://www.w3.org/2000/svg" xmlns:xlink="http://www.w3.org/1999/xlink">
    <!-- Generator: Sketch 55 (78076) - https://sketchapp.com -->
    <title>ic_yuanshuju_pressed</title>
    <desc>Created with Sketch.</desc>
    <g id="ic_yuanshuju_pressed" stroke="none" stroke-width="1" fill="none" fill-rule="evenodd">
        <g id="Group-2">
            <polygon id="selected-copy-3" opacity="0.149999991" points="0 0 32 0 32 32 0 32 0 20.4270833 0 15.7847222"></polygon>
            <g id="元数据配置" transform="translate(7.000000, 8.000000)" fill="#2B65FF" fill-rule="nonzero">
                <path d="M16.5789474,16 L1.42105263,16 C0.637578947,16 0,15.4332632 0,14.7368421 L0,1.26315789 C0,0.566736842 0.637578947,0 1.42105263,0 L16.5789474,0 C17.3624211,0 18,0.566736842 18,1.26315789 L18,14.7368421 C18,15.4332632 17.3624211,16 16.5789474,16 Z M1,1.41176471 L1,14.5882353 C1,14.8155294 1.21082353,15 1.47058824,15 L16.5294118,15 C16.7891765,15 17,14.8155294 17,14.5882353 L17,1.41176471 C17,1.18447059 16.7891765,1 16.5294118,1 L1.47058824,1 C1.21082353,1 1,1.18447059 1,1.41176471 Z M1,4 L17,4 L17,5 L1,5 L1,4 Z M4.5,7 L14.5,7 C14.7761424,7 15,7.22385763 15,7.5 L15,7.5 C15,7.77614237 14.7761424,8 14.5,8 L4.5,8 C4.22385763,8 4,7.77614237 4,7.5 L4,7.5 C4,7.22385763 4.22385763,7 4.5,7 Z M4.5,12 L14.5,12 C14.7761424,12 15,12.2238576 15,12.5 L15,12.5 C15,12.7761424 14.7761424,13 14.5,13 L4.5,13 C4.22385763,13 4,12.7761424 4,12.5 L4,12.5 C4,12.2238576 4.22385763,12 4.5,12 Z M6.5,11 L6.5,11 C6.77614237,11 7,11.2238576 7,11.5 L7,13.5 C7,13.7761424 6.77614237,14 6.5,14 L6.5,14 C6.22385763,14 6,13.7761424 6,13.5 L6,11.5 C6,11.2238576 6.22385763,11 6.5,11 Z M11.5,6 L11.5,6 C11.7761424,6 12,6.22385763 12,6.5 L12,8.5 C12,8.77614237 11.7761424,9 11.5,9 L11.5,9 C11.2238576,9 11,8.77614237 11,8.5 L11,6.5 C11,6.22385763 11.2238576,6 11.5,6 Z" id="形状"></path>
            </g>
        </g>
    </g>
</svg>